<?xml version="1.0" encoding="UTF-8" standalone="no"?>
<!-- Created with Inkscape (http://www.inkscape.org/) -->

<svg
   xmlns:dc="http://purl.org/dc/elements/1.1/"
   xmlns:cc="http://creativecommons.org/ns#"
   xmlns:rdf="http://www.w3.org/1999/02/22-rdf-syntax-ns#"
   xmlns:svg="http://www.w3.org/2000/svg"
   xmlns="http://www.w3.org/2000/svg"
   xmlns:sodipodi="http://sodipodi.sourceforge.net/DTD/sodipodi-0.dtd"
   xmlns:inkscape="http://www.inkscape.org/namespaces/inkscape"
   version="1.1"
   id="svg2"
   xml:space="preserve"
   width="383.08957"
   height="540.73053"
   viewBox="0 0 383.08957 540.73052"
   sodipodi:docname="css.svg"
   inkscape:version="0.92.3 (2405546, 2018-03-11)"><metadata
     id="metadata8"><rdf:RDF><cc:Work
         rdf:about=""><dc:format>image/svg+xml</dc:format><dc:type
           rdf:resource="http://purl.org/dc/dcmitype/StillImage" /><dc:title /></cc:Work></rdf:RDF></metadata><defs
     id="defs6" /><sodipodi:namedview
     pagecolor="#ffffff"
     bordercolor="#666666"
     borderopacity="1"
     objecttolerance="10"
     gridtolerance="10"
     guidetolerance="10"
     inkscape:pageopacity="0"
     inkscape:pageshadow="2"
     inkscape:window-width="1394"
     inkscape:window-height="835"
     id="namedview4"
     showgrid="false"
     inkscape:zoom="0.28391774"
     inkscape:cx="233.90087"
     inkscape:cy="94.66735"
     inkscape:window-x="46"
     inkscape:window-y="40"
     inkscape:window-maximized="1"
     inkscape:current-layer="g10" /><g
     id="g10"
     inkscape:groupmode="layer"
     inkscape:label="ink_ext_XXXXXX"
     transform="matrix(1.3333333,0,0,-1.3333333,-9.9621324,3317.5609)"><g
       transform="matrix(0.01999062,0,0,0.01999062,7.4715995,2082.6228)"
       id="g14"
       style="fill:#026670;fill-opacity:1"><path
         inkscape:connector-curvature="0"
         id="path16"
         style="fill:#026670;fill-opacity:1;fill-rule:nonzero;stroke:none"
         d="M 7177.5,0 1308.01,1629.42 0,16300 H 14372.6 L 13063.2,1631.62 7177.5,0 v 0" /></g><g
       transform="matrix(0.01851947,0,0,0.01851947,7.4715995,2082.6228)"
       id="g18" /><g
       transform="matrix(0.01631274,0,0,0.01631274,7.7155495,2082.6228)"
       id="g22"
       style="fill:#9fedd7;fill-opacity:1"><path
         inkscape:connector-curvature="0"
         id="path24"
         style="fill:#9fedd7;fill-opacity:1;fill-rule:nonzero;stroke:none"
         d="m 8806.49,6110.6 -9.67,-2.5 -2455.63,663.07 -157,1758.52 H 3970.74 l 308.89,-3462.1 4516.72,-1253.86 10.14,2.79 z M 3277.51,16300 3477.94,14095.1 H 8806.49 V 16300 Z m 397.11,-4462.8 197.6,-2204.98 H 8806.49 V 11837.2 H 3674.62" /></g><g
       transform="matrix(0.02488024,0,0,0.02488024,7.4715995,2082.6228)"
       id="g26"
       style="fill:#026670;fill-opacity:1"><path
         inkscape:connector-curvature="0"
         id="path28"
         style="fill:#026670;fill-opacity:1;fill-rule:nonzero;stroke:none"
         d="m 6920.09,16300 h 1751 v -636.7 H 7652.38 v -127.4 h 1018.71 v -1464.4 h -1751 v 668.6 h 1018.78 v 127.3 H 6920.15 V 16300 Z m -2101.17,0 h 1750.94 v -636.7 h -1018.7 v -127.4 h 1018.7 V 14071.5 H 4818.97 v 668.6 H 5837.7 v 127.3 H 4818.88 V 16300 Z m -2101.15,0 h 1750.92 v -732.2 H 3450.01 v -732.3 h 1018.77 v -732.2 H 2717.77 V 16300" /></g><g
       transform="matrix(0.01631274,0,0,0.01631274,5.9715995,2082.6228)"
       id="g30"
       style="fill:#9fedd7;fill-opacity:1"><path
         inkscape:connector-curvature="0"
         id="path32"
         style="fill:#9fedd7;fill-opacity:1;fill-rule:nonzero;stroke:none"
         d="m 13924.3,11837.2 398,4462.8 H 8798.9 v -2204.9 h 3107 l -200.6,-2257.9 H 8798.9 V 9632.22 h 2715.2 L 11258,6772.47 8798.83,6108.8 V 3814.82 l 4520.27,1252.77 33.1,372.46 518.3,5805.05 53.8,592.1 v 0" /></g></g></svg>