<?xml version="1.0" encoding="UTF-8" standalone="no"?>
<!-- Created with Inkscape (http://www.inkscape.org/) -->

<svg
   xmlns:dc="http://purl.org/dc/elements/1.1/"
   xmlns:cc="http://creativecommons.org/ns#"
   xmlns:rdf="http://www.w3.org/1999/02/22-rdf-syntax-ns#"
   xmlns:svg="http://www.w3.org/2000/svg"
   xmlns="http://www.w3.org/2000/svg"
   xmlns:sodipodi="http://sodipodi.sourceforge.net/DTD/sodipodi-0.dtd"
   xmlns:inkscape="http://www.inkscape.org/namespaces/inkscape"
   width="167.44345mm"
   height="125.10816mm"
   viewBox="0 0 167.44346 125.10816"
   version="1.1"
   id="svg1482"
   inkscape:version="0.92.3 (2405546, 2018-03-11)"
   sodipodi:docname="ecmascript.svg">
  <defs
     id="defs1476" />
  <sodipodi:namedview
     id="base"
     pagecolor="#ffffff"
     bordercolor="#666666"
     borderopacity="1.0"
     inkscape:pageopacity="0.0"
     inkscape:pageshadow="2"
     inkscape:zoom="0.35"
     inkscape:cx="-80.714294"
     inkscape:cy="55.175961"
     inkscape:document-units="mm"
     inkscape:current-layer="layer1"
     showgrid="false"
     inkscape:window-width="1394"
     inkscape:window-height="835"
     inkscape:window-x="46"
     inkscape:window-y="40"
     inkscape:window-maximized="1" />
  <metadata
     id="metadata1479">
    <rdf:RDF>
      <cc:Work
         rdf:about="">
        <dc:format>image/svg+xml</dc:format>
        <dc:type
           rdf:resource="http://purl.org/dc/dcmitype/StillImage" />
        <dc:title />
      </cc:Work>
    </rdf:RDF>
  </metadata>
  <g
     inkscape:label="Layer 1"
     inkscape:groupmode="layer"
     id="layer1"
     transform="translate(-13.22917,-13.896799)">
    <rect
       style="opacity:1;fill:#026670;fill-opacity:1;stroke:none;stroke-width:2.68855262;stroke-linecap:square;stroke-miterlimit:4;stroke-dasharray:none;stroke-opacity:1;paint-order:fill markers stroke"
       id="rect2042"
       width="167.44345"
       height="125.10816"
       x="13.22917"
       y="13.896799"
       ry="0" />
    <path
       style="fill:#9fedd7;stroke-width:0.46840727;fill-opacity:1"
       d="m 126.77908,99.487579 c -4.83137,-1.594966 -8.38937,-4.580185 -10.42986,-8.750849 -1.14176,-2.333648 -1.22472,-2.900303 -1.05247,-7.18896 0.17403,-4.332793 0.31585,-4.904547 2.04525,-8.245182 1.02204,-1.974248 5.01666,-7.783998 8.87693,-12.910563 l 7.01869,-9.321006 h 5.97961 c 3.2888,0 5.97964,0.118967 5.97964,0.264527 0,0.504162 -9.03843,12.158216 -11.05648,14.256096 l -2.0276,2.107819 3.84869,-0.15756 c 5.17941,-0.212001 8.50524,1.005744 11.83161,4.332135 2.92191,2.921874 3.96147,5.654171 3.96147,10.411918 0,6.646743 -3.14076,11.484754 -9.33857,14.385066 -2.64779,1.239034 -3.62423,1.43084 -7.96428,1.56434 -3.92265,0.12074 -5.51077,-0.0341 -7.67263,-0.747798 z m 9.13488,-8.556457 c 3.97693,-1.191524 5.93431,-5.552552 4.22578,-9.415002 -1.23101,-2.782892 -3.38788,-4.087931 -6.75619,-4.087931 -5.3659,0 -8.76091,4.778887 -6.74915,9.50029 1.56145,3.664535 5.18757,5.228629 9.27956,4.002643 z m -47.981554,8.230734 c -3.459812,-1.06385 -6.482457,-3.06685 -8.661061,-5.739386 -1.096453,-1.345063 -1.993564,-2.625969 -1.993564,-2.846484 0,-0.220498 1.717158,-1.37378 3.815883,-2.562841 l 3.815873,-2.161928 1.621134,1.893928 c 2.125492,2.483158 4.646713,3.735265 7.521225,3.735265 4.334649,0 6.646264,-1.610924 6.646264,-4.631647 0,-2.244248 -1.873571,-3.921501 -6.883301,-6.162068 -6.118123,-2.736285 -8.69989,-4.348693 -10.694818,-6.679314 -4.54581,-5.310738 -3.763754,-14.384001 1.59187,-18.468872 4.273291,-3.259347 11.835851,-3.874352 16.787459,-1.365194 2.32626,1.17881 5.7565,4.594203 5.7565,5.731587 0,0.493735 -6.08497,4.876293 -6.77051,4.876293 -0.13366,0 -0.943955,-0.764883 -1.800681,-1.699721 -1.308546,-1.427883 -1.942914,-1.73674 -3.966275,-1.93116 -2.223821,-0.213682 -2.522463,-0.117552 -3.893056,1.253042 -1.28567,1.285669 -1.44748,1.712485 -1.208235,3.186836 0.151897,0.936291 0.601533,2.02763 0.999067,2.425185 0.397551,0.397548 3.928234,2.309201 7.845929,4.248094 8.409001,4.161701 10.125111,5.782838 11.403351,10.772291 1.89931,7.413727 -1.74319,14.06435 -8.86057,16.177981 -2.983528,0.886007 -10.114287,0.857697 -13.072484,-0.0519 z M 42.147234,76.257166 V 53.071019 h 15.22324 15.22324 v 4.215665 4.215666 H 62.054558 51.515385 v 5.15247 5.152485 h 9.368152 9.368134 v 3.981459 3.98147 h -9.368134 -9.368152 v 5.620887 5.620887 H 62.52296 73.530534 v 4.215663 4.215664 H 57.838893 42.147234 Z"
       id="path2038"
       inkscape:connector-curvature="0" />
  </g>
</svg>
