<?xml version="1.0" encoding="UTF-8" standalone="no"?>
<!-- Created with Inkscape (http://www.inkscape.org/) -->

<svg
   xmlns:dc="http://purl.org/dc/elements/1.1/"
   xmlns:cc="http://creativecommons.org/ns#"
   xmlns:rdf="http://www.w3.org/1999/02/22-rdf-syntax-ns#"
   xmlns:svg="http://www.w3.org/2000/svg"
   xmlns="http://www.w3.org/2000/svg"
   xmlns:sodipodi="http://sodipodi.sourceforge.net/DTD/sodipodi-0.dtd"
   xmlns:inkscape="http://www.inkscape.org/namespaces/inkscape"
   version="1.1"
   id="svg2"
   width="242.28249"
   height="242.43399"
   viewBox="0 0 242.28248 242.43398"
   sodipodi:docname="facebook.svg"
   inkscape:version="0.92.3 (2405546, 2018-03-11)">
  <metadata
     id="metadata8">
    <rdf:RDF>
      <cc:Work
         rdf:about="">
        <dc:format>image/svg+xml</dc:format>
        <dc:type
           rdf:resource="http://purl.org/dc/dcmitype/StillImage" />
        <dc:title></dc:title>
      </cc:Work>
    </rdf:RDF>
  </metadata>
  <defs
     id="defs6" />
  <sodipodi:namedview
     pagecolor="#ffffff"
     bordercolor="#666666"
     borderopacity="1"
     objecttolerance="10"
     gridtolerance="10"
     guidetolerance="10"
     inkscape:pageopacity="0"
     inkscape:pageshadow="2"
     inkscape:window-width="1394"
     inkscape:window-height="835"
     id="namedview4"
     showgrid="false"
     inkscape:zoom="0.51084854"
     inkscape:cx="-176.97336"
     inkscape:cy="57.334705"
     inkscape:window-x="46"
     inkscape:window-y="40"
     inkscape:window-maximized="1"
     inkscape:current-layer="svg2" />
  <path
     style="fill:#026670;stroke-width:0.21548729;fill-opacity:1"
     d="m 40.685775,226.4953 c -3.297054,-0.42342 -7.424007,-1.8033 -10.372421,-3.46814 -2.484334,-1.40279 -4.197055,-2.7199 -6.363268,-4.89348 -4.070478,-4.08435 -6.651541,-8.94429 -7.90363,-14.88198 -0.367368,-1.74213 -0.386237,-5.75534 -0.386237,-82.10067 0,-76.345323 0.0189,-80.358541 0.386237,-82.100649 1.266892,-6.007873 3.838385,-10.823257 8.004625,-14.989498 4.166249,-4.166248 8.981634,-6.737733 14.989506,-8.004624 1.7421,-0.367369 5.755318,-0.386246 82.100643,-0.386246 75.93587,0 80.37001,0.02055 82.13993,0.381317 5.85666,1.193655 10.76278,3.822094 14.95024,8.009553 4.16622,4.166241 6.73773,8.981625 8.00461,14.989498 0.36737,1.742108 0.38625,5.755326 0.38625,82.100649 0,76.58025 -0.0179,80.35194 -0.38911,82.07367 -1.32527,6.14651 -3.82048,10.82419 -8.00725,15.01096 -4.05458,4.05456 -8.69937,6.58267 -14.50048,7.89245 -2.03165,0.4587 -2.58311,0.47668 -17.0222,0.55499 l -14.92248,0.0809 v -45.1567 -45.15669 h 12.55932 12.55936 l 1.67198,-15.46122 c 0.91958,-8.50366 1.66784,-15.53394 1.66281,-15.62283 -0.005,-0.0889 -6.40912,-0.16161 -14.2313,-0.16161 h -14.22217 l 0.002,-8.673365 c 0.002,-9.253022 0.16873,-11.425766 1.05895,-13.769007 0.60776,-1.599744 1.83641,-2.961788 3.4452,-3.819272 2.30782,-1.23006 3.17933,-1.31284 13.8646,-1.316985 l 9.64309,-0.0035 V 62.107744 46.592658 h -16.15051 c -17.40461,0 -18.64577,0.0626 -23.17592,1.169422 -6.842,1.671623 -11.52229,4.150193 -15.64329,8.284303 -2.62501,2.633359 -4.0861,4.703461 -5.70748,8.086447 -1.36962,2.857711 -2.23377,5.399173 -2.97492,8.74928 -1.13459,5.128455 -1.24494,6.74813 -1.36179,19.986437 l -0.10889,12.336653 h -9.02759 -9.02765 v 15.62283 15.62282 h 9.05047 9.05047 v 45.14459 45.14457 l -46.275902,-0.0273 c -25.451734,-0.015 -46.941596,-0.11274 -47.755265,-0.21723 z"
     id="path817"
     inkscape:connector-curvature="0" />
</svg>
