<?xml version="1.0" encoding="UTF-8" standalone="no"?>
<!-- Created with Inkscape (http://www.inkscape.org/) -->

<svg
   xmlns:dc="http://purl.org/dc/elements/1.1/"
   xmlns:cc="http://creativecommons.org/ns#"
   xmlns:rdf="http://www.w3.org/1999/02/22-rdf-syntax-ns#"
   xmlns:svg="http://www.w3.org/2000/svg"
   xmlns="http://www.w3.org/2000/svg"
   xmlns:sodipodi="http://sodipodi.sourceforge.net/DTD/sodipodi-0.dtd"
   xmlns:inkscape="http://www.inkscape.org/namespaces/inkscape"
   width="119.38524mm"
   height="140.05473mm"
   viewBox="0 0 119.38524 140.05473"
   version="1.1"
   id="svg8"
   inkscape:version="0.92.3 (2405546, 2018-03-11)"
   sodipodi:docname="jest.svg">
  <defs
     id="defs2" />
  <sodipodi:namedview
     id="base"
     pagecolor="#ffffff"
     bordercolor="#666666"
     borderopacity="1.0"
     inkscape:pageopacity="0.0"
     inkscape:pageshadow="2"
     inkscape:zoom="0.35"
     inkscape:cx="348.01876"
     inkscape:cy="-28.944948"
     inkscape:document-units="mm"
     inkscape:current-layer="layer1"
     showgrid="false"
     inkscape:window-width="1394"
     inkscape:window-height="835"
     inkscape:window-x="46"
     inkscape:window-y="40"
     inkscape:window-maximized="1" />
  <metadata
     id="metadata5">
    <rdf:RDF>
      <cc:Work
         rdf:about="">
        <dc:format>image/svg+xml</dc:format>
        <dc:type
           rdf:resource="http://purl.org/dc/dcmitype/StillImage" />
        <dc:title></dc:title>
      </cc:Work>
    </rdf:RDF>
  </metadata>
  <g
     inkscape:label="Layer 1"
     inkscape:groupmode="layer"
     id="layer1"
     transform="translate(-0.52420301,0.39166286)">
    <path
       style="fill:#026670;fill-opacity:1;stroke-width:0.26458332"
       d="M 20.281687,139.55087 C 14.15164,138.96675 7.8436068,135.40736 4.6104888,130.70818 1.5067248,126.19702 0.07886076,119.74945 0.64608776,112.80682 1.1309838,106.87189 2.3189768,102.44645 5.1446678,96.048957 c 3.125244,-7.07568 3.777255,-8.36133 4.164949,-8.21256 0.204631,0.0785 0.524658,0.14277 0.7111712,0.14277 0.265356,0 0.283189,0.30214 0.08199,1.38906 -0.4385132,2.36898 -0.08722,7.41265 0.701135,10.0665 1.975808,6.651193 6.275229,11.842193 12.638545,15.259423 l 2.030108,1.09021 2.6001,-0.96104 c 11.966379,-4.42298 23.739419,-13.77949 31.060619,-24.685123 l 1.4374,-2.14114 1.71979,-0.0135 c 3.22597,-0.0254 6.82934,-1.09097 9.98676,-2.95323 3.46714,-2.04495 6.97565,-6.52102 8.2723,-10.5536 l 0.59271,-1.84335 h 4.4019 4.4019 l 0.47984,1.67549 c 0.80475,2.80999 2.39651,5.36201 4.9109,7.87347 2.52151,2.51856 4.53026,3.7738 7.831815,4.89401 1.86525,0.63287 2.54092,0.72129 5.68854,0.74437 3.05871,0.0224 3.85651,-0.0632 5.55305,-0.59584 1.08964,-0.34213 2.42008,-0.84596 2.95653,-1.11964 l 0.97535,-0.49759 0.4137,1.11964 c 2.52204,6.82565 0.70747,15.181203 -4.43511,20.422433 -4.08164,4.15992 -9.07663,6.18111 -19.002425,7.68922 -16.68421,2.53496 -21.36749,4.08376 -38.96429,12.88574 -9.3331,4.66845 -13.96493,6.83393 -18.18211,8.50051 -6.868953,2.71453 -12.777472,3.81291 -17.89015,3.32573 z M 11.320231,77.125267 c -1.9750442,-0.78245 -3.6263882,-2.35759 -4.6486772,-4.43415 -0.779275,-1.58293 -0.869619,-2.00344 -0.869619,-4.04765 0,-2.08557 0.07941,-2.43658 0.926042,-4.09309 1.712166,-3.35004 4.7541362,-5.08631 8.4468332,-4.82122 5.058032,0.36311 8.728155,5.19634 7.909592,10.41624 -0.439404,2.80206 -2.278525,5.32771 -4.84705,6.65642 -1.836373,0.94996 -4.966269,1.09632 -6.917121,0.32345 z m 48.324414,-0.24144 c -1.48224,-0.4525 -2.90321,-1.3866 -4.05046,-2.66262 -3.25514,-3.6205 -3.11428,-9.01755 0.32513,-12.45696 4.29858,-4.29858 11.15245,-3.15468 13.92881,2.32469 0.69717,1.37592 0.77673,1.7904 0.77673,4.04648 0,2.21742 -0.0873,2.6913 -0.74093,4.02236 -0.92772,1.88918 -2.91812,3.71175 -4.83805,4.43009 -1.48632,0.5561 -4.08305,0.69839 -5.40123,0.29596 z m 47.095825,0.0155 c -2.28172,-0.75018 -4.49114,-2.64374 -5.54643,-4.7535 -1.761485,-3.52163 -0.93021,-7.8909 2.02768,-10.65767 4.4085,-4.12363 11.31027,-2.58497 13.88915,3.09642 0.89276,1.9668 0.84652,5.266 -0.1024,7.30696 -0.85268,1.83396 -2.56124,3.59701 -4.30291,4.44013 -1.39085,0.6733 -4.68912,0.98718 -5.96509,0.56766 z M 58.479505,24.607897 c -4.45537,-13.29711 -8.17172,-24.36174986 -8.25857,-24.58806986 -0.14236,-0.37099 3.27969,-0.41149 34.7653,-0.41149 H 119.90944 L 111.67131,24.197057 c -4.53097,13.5238 -8.30767,24.50731 -8.39267,24.40781 -0.085,-0.0995 -4.192645,-8.54161 -9.128115,-18.76025 -4.93547,-10.21863 -9.03312,-18.57645 -9.10588,-18.57293 -0.0728,0.004 -2.86801,5.62578 -6.21166,12.49392 -3.34365,6.86813 -7.4684,15.30707 -9.1661,18.7532 l -3.08673,6.26567 z"
       id="path826"
       inkscape:connector-curvature="0" />
  </g>
</svg>
