<?xml version="1.0" encoding="UTF-8" standalone="no"?>
<!-- Generator: Adobe Illustrator 19.0.0, SVG Export Plug-In . SVG Version: 6.00 Build 0)  -->

<svg
   xmlns:dc="http://purl.org/dc/elements/1.1/"
   xmlns:cc="http://creativecommons.org/ns#"
   xmlns:rdf="http://www.w3.org/1999/02/22-rdf-syntax-ns#"
   xmlns:svg="http://www.w3.org/2000/svg"
   xmlns="http://www.w3.org/2000/svg"
   xmlns:sodipodi="http://sodipodi.sourceforge.net/DTD/sodipodi-0.dtd"
   xmlns:inkscape="http://www.inkscape.org/namespaces/inkscape"
   version="1.1"
   id="Layer_1"
   x="0px"
   y="0px"
   viewBox="0 0 229.98628 229.98628"
   xml:space="preserve"
   sodipodi:docname="linkedin.svg"
   width="229.98628"
   height="229.98628"
   inkscape:version="0.92.3 (2405546, 2018-03-11)"><metadata
   id="metadata1252"><rdf:RDF><cc:Work
       rdf:about=""><dc:format>image/svg+xml</dc:format><dc:type
         rdf:resource="http://purl.org/dc/dcmitype/StillImage" /><dc:title></dc:title></cc:Work></rdf:RDF></metadata><defs
   id="defs1250" /><sodipodi:namedview
   pagecolor="#ffffff"
   bordercolor="#666666"
   borderopacity="1"
   objecttolerance="10"
   gridtolerance="10"
   guidetolerance="10"
   inkscape:pageopacity="0"
   inkscape:pageshadow="2"
   inkscape:window-width="1394"
   inkscape:window-height="835"
   id="namedview1248"
   showgrid="false"
   inkscape:zoom="1.526178"
   inkscape:cx="190.34477"
   inkscape:cy="57.604808"
   inkscape:window-x="46"
   inkscape:window-y="40"
   inkscape:window-maximized="1"
   inkscape:current-layer="Layer_1" />
<path
   style="fill:#026670;stroke-width:0.5711835;fill-opacity:1"
   d="M 204.35194,5.897084 H 25.63433 c -10.900466,0 -19.737246,8.83678 -19.737246,19.737246 v 178.71705 c 0,10.90103 8.83678,19.73782 19.737246,19.73782 h 178.71705 c 10.90103,0 19.73782,-8.83679 19.73782,-19.73782 V 25.63433 c 0,-10.900466 -8.83679,-19.737246 -19.73726,-19.737246 z M 73.414976,194.29855 c 0,3.17235 -2.571471,5.74381 -5.743823,5.74381 H 43.221069 c -3.17235,0 -5.743822,-2.57146 -5.743822,-5.74381 V 91.804802 c 0,-3.172352 2.571472,-5.743823 5.743822,-5.743823 h 24.450084 c 3.172352,0 5.743823,2.571471 5.743823,5.743823 z M 55.446116,76.399406 c -12.828213,0 -23.227755,-10.399533 -23.227755,-23.227746 0,-12.828213 10.399542,-23.227747 23.227755,-23.227747 12.828205,0 23.227747,10.399534 23.227747,23.227747 0,12.828213 -10.398964,23.227746 -23.227747,23.227746 z M 201.19045,194.7612 c 0,2.91647 -2.3647,5.28116 -5.28117,5.28116 h -26.23674 c -2.91647,0 -5.28116,-2.36469 -5.28116,-5.28116 v -48.07537 c 0,-7.17178 2.10366,-31.42709 -18.74225,-31.42709 -16.16964,0 -19.44937,16.60202 -20.10794,24.05254 v 55.44992 c 0,2.91647 -2.36413,5.28116 -5.28117,5.28116 H 94.884626 c -2.916465,0 -5.281163,-2.36469 -5.281163,-5.28116 V 91.34214 c 0,-2.916463 2.364698,-5.281161 5.281163,-5.281161 h 25.375394 c 2.91647,0 5.28117,2.364698 5.28117,5.281161 v 8.94188 c 5.99571,-8.997854 14.90618,-15.942877 33.87803,-15.942877 42.0117,0 41.77123,39.249447 41.77123,60.815057 z"
   id="path1215"
   inkscape:connector-curvature="0" />
<g
   id="g1217"
   transform="translate(-0.6552315,-0.6552315)">
</g>
<g
   id="g1219"
   transform="translate(-0.6552315,-0.6552315)">
</g>
<g
   id="g1221"
   transform="translate(-0.6552315,-0.6552315)">
</g>
<g
   id="g1223"
   transform="translate(-0.6552315,-0.6552315)">
</g>
<g
   id="g1225"
   transform="translate(-0.6552315,-0.6552315)">
</g>
<g
   id="g1227"
   transform="translate(-0.6552315,-0.6552315)">
</g>
<g
   id="g1229"
   transform="translate(-0.6552315,-0.6552315)">
</g>
<g
   id="g1231"
   transform="translate(-0.6552315,-0.6552315)">
</g>
<g
   id="g1233"
   transform="translate(-0.6552315,-0.6552315)">
</g>
<g
   id="g1235"
   transform="translate(-0.6552315,-0.6552315)">
</g>
<g
   id="g1237"
   transform="translate(-0.6552315,-0.6552315)">
</g>
<g
   id="g1239"
   transform="translate(-0.6552315,-0.6552315)">
</g>
<g
   id="g1241"
   transform="translate(-0.6552315,-0.6552315)">
</g>
<g
   id="g1243"
   transform="translate(-0.6552315,-0.6552315)">
</g>
<g
   id="g1245"
   transform="translate(-0.6552315,-0.6552315)">
</g>
</svg>