<?xml version="1.0" encoding="UTF-8" standalone="no"?>
<svg
   xmlns:dc="http://purl.org/dc/elements/1.1/"
   xmlns:cc="http://creativecommons.org/ns#"
   xmlns:rdf="http://www.w3.org/1999/02/22-rdf-syntax-ns#"
   xmlns:svg="http://www.w3.org/2000/svg"
   xmlns="http://www.w3.org/2000/svg"
   xmlns:sodipodi="http://sodipodi.sourceforge.net/DTD/sodipodi-0.dtd"
   xmlns:inkscape="http://www.inkscape.org/namespaces/inkscape"
   width="308.09592"
   height="277.00327"
   viewBox="0 0 31.549022 28.366318"
   preserveAspectRatio="xMinYMin meet"
   version="1.1"
   id="svg1868"
   sodipodi:docname="react.svg"
   inkscape:version="0.92.3 (2405546, 2018-03-11)">
  <metadata
     id="metadata1874">
    <rdf:RDF>
      <cc:Work
         rdf:about="">
        <dc:format>image/svg+xml</dc:format>
        <dc:type
           rdf:resource="http://purl.org/dc/dcmitype/StillImage" />
      </cc:Work>
    </rdf:RDF>
  </metadata>
  <defs
     id="defs1872" />
  <sodipodi:namedview
     pagecolor="#ffffff"
     bordercolor="#666666"
     borderopacity="1"
     objecttolerance="10"
     gridtolerance="10"
     guidetolerance="10"
     inkscape:pageopacity="0"
     inkscape:pageshadow="2"
     inkscape:window-width="1394"
     inkscape:window-height="835"
     id="namedview1870"
     showgrid="false"
     inkscape:zoom="1.1887957"
     inkscape:cx="73.476249"
     inkscape:cy="74.922403"
     inkscape:window-x="46"
     inkscape:window-y="40"
     inkscape:window-maximized="1"
     inkscape:current-layer="svg1868" />
  <path
     d="m 0.67067164,14.134335 c 0,2.281438 2.22776936,4.411134 5.73986396,5.611635 -0.7013516,3.530735 -0.1256212,6.376623 1.7971296,7.485462 1.9762928,1.139827 4.9206118,0.350849 7.7152078,-2.092058 2.724071,2.344245 5.477109,3.266793 7.398191,2.154748 1.974514,-1.143034 2.574946,-4.18186 1.854241,-7.822897 3.658134,-1.209408 5.704363,-3.025414 5.704363,-5.33689 0,-2.228479 -2.231805,-4.1563342 -5.696644,-5.3491171 C 25.958936,4.9937511 25.301518,2.2169643 23.299102,1.062295 21.368638,-0.05093614 18.58354,0.91934146 15.819456,3.3248536 12.943766,0.77163877 10.186214,-0.00783684 8.1859341,1.150038 6.2572536,2.2664758 5.7069273,5.1641308 6.4105356,8.7601701 3.0169346,9.9433341 0.67067164,11.914877 0.67067164,14.134335 Z"
     id="path1860"
     inkscape:connector-curvature="0"
     style="fill:#ffffff;stroke-width:0.11873204" />
  <path
     d="M 24.449257,9.9696937 A 17.971757,17.971757 0 0 0 23.585603,9.6975552 16.325656,16.325656 0 0 0 23.719054,9.1085263 C 24.372792,5.9350571 23.945357,3.3785197 22.48567,2.5369473 21.086172,1.7298071 18.797255,2.5713785 16.485542,4.5830567 A 17.944687,17.944687 0 0 0 15.817556,5.1960697 16.334324,16.334324 0 0 0 15.373024,4.7854951 C 12.950294,2.6343073 10.521871,1.7279065 9.0637205,2.5719731 7.6655349,3.3813692 7.2513985,5.7848621 7.8399496,8.7923445 a 17.917853,17.917853 0 0 0 0.1982809,0.8885916 c -0.3436072,0.097597 -0.675464,0.2016082 -0.9929528,0.3122619 -2.8403093,0.99023 -4.6542945,2.542294 -4.6542945,4.152063 0,1.662723 1.947204,3.330433 4.9057666,4.341554 a 15.249944,15.249944 0 0 0 0.7254543,0.226776 17.55014,17.55014 0 0 0 -0.2107503,0.957814 c -0.5611258,2.95524 -0.1228866,5.301741 1.2716204,6.106153 1.4403398,0.830531 3.8577218,-0.02314 6.2117058,-2.080781 0.186054,-0.162664 0.372816,-0.335179 0.559819,-0.516011 a 17.612712,17.612712 0 0 0 0.725219,0.661695 c 2.280127,1.962049 4.532001,2.754345 5.92532,1.947802 1.439034,-0.833028 1.906603,-3.353828 1.299407,-6.420792 -0.04629,-0.23426 -0.100332,-0.473505 -0.160886,-0.717143 0.169791,-0.05011 0.336371,-0.101874 0.498915,-0.155779 3.075633,-1.018956 5.076628,-2.666362 5.076628,-4.351288 0,-1.61559 -1.872409,-3.178101 -4.769945,-4.1755673 z"
     id="path1862"
     inkscape:connector-curvature="0"
     style="fill:#026670;fill-opacity:1;stroke-width:0.11873204" />
  <path
     d="m 23.7821,17.408727 c -0.146633,0.04855 -0.297185,0.09546 -0.450588,0.140933 -0.339571,-1.074881 -0.797878,-2.217909 -1.358527,-3.3987 0.535123,-1.15289 0.97562,-2.281198 1.305693,-3.349194 0.274389,0.07955 0.540823,0.163258 0.797522,0.251709 2.48269,0.854516 3.996998,2.118181 3.996998,3.091786 0,1.037123 -1.635536,2.383544 -4.290977,3.263466 z m -1.101828,2.183364 c 0.268448,1.356161 0.306799,2.582303 0.128943,3.540826 -0.159816,0.861282 -0.481104,1.43547 -0.87838,1.665458 -0.845492,0.48941 -2.653662,-0.146754 -4.60348,-1.824675 -0.223575,-0.192346 -0.448809,-0.397753 -0.674635,-0.615031 0.755965,-0.826852 1.511457,-1.788108 2.248782,-2.855506 1.297029,-0.115052 2.522343,-0.303242 3.63356,-0.560061 0.05461,0.220841 0.103296,0.437289 0.14521,0.648989 z m -11.143003,5.121743 c -0.826022,0.291727 -1.483917,0.30004 -1.8815504,0.07077 C 8.809398,24.296613 8.4577145,22.412334 8.9375115,19.885122 a 16.44522,16.44522 0 0 1 0.1959044,-0.890727 c 1.0988681,0.243044 2.3152761,0.417936 3.6153911,0.523374 0.742195,1.044487 1.519533,2.004552 2.302929,2.845294 a 14.112847,14.112847 0 0 1 -0.511142,0.470655 c -1.040923,0.909961 -2.083987,1.555386 -3.003209,1.880118 z M 7.6674346,17.402315 C 6.359244,16.955169 5.2788996,16.374096 4.5383687,15.740068 3.8729957,15.170151 3.5369814,14.604396 3.5369814,14.145261 c 0,-0.976812 1.4564879,-2.222901 3.8856251,-3.069819 a 16.536524,16.536524 0 0 1 0.923379,-0.290536 c 0.3357768,1.091977 0.7761522,2.233704 1.3075979,3.388257 -0.53833,1.171765 -0.9850038,2.33166 -1.3238608,3.436459 A 14.118191,14.118191 0 0 1 7.6674346,17.402315 Z M 8.9647002,8.5722166 C 8.4604433,5.9953739 8.7952713,4.051612 9.6379084,3.5638602 10.535525,3.0442893 12.520131,3.7851773 14.611953,5.6425021 14.745645,5.7612342 14.87993,5.8855465 15.014455,6.0141329 14.235097,6.8510749 13.464884,7.8038986 12.729102,8.8423291 11.467332,8.9592802 10.259473,9.147113 9.1490909,9.3987067 A 16.803553,16.803553 0 0 1 8.9647002,8.572096 Z M 20.537158,11.429738 a 36.448601,36.448601 0 0 0 -0.815811,-1.341671 c 0.856061,0.108046 1.676143,0.251713 2.446235,0.427555 -0.231168,0.741003 -0.519333,1.515849 -0.858669,2.31017 A 39.943835,39.943835 0 0 0 20.537158,11.429738 Z M 15.817912,6.8331489 c 0.528596,0.5726453 1.058021,1.2121308 1.578782,1.9058837 a 33.748991,33.748991 0 0 0 -3.17086,-5.247e-4 c 0.521233,-0.6873406 1.055171,-1.3258763 1.592078,-1.9051704 z m -4.749519,4.6044241 a 33.867129,33.867129 0 0 0 -0.757272,1.387384 C 9.9773638,12.033371 9.6918129,11.255082 9.458624,10.50351 c 0.765469,-0.171328 1.581751,-0.311318 2.432228,-0.417579 a 33.694967,33.694967 0 0 0 -0.822459,1.351642 z m 0.846919,6.848825 C 11.036691,18.188322 10.20806,18.05546 9.4428331,17.88888 9.6797007,17.12401 9.97155,16.328981 10.312428,15.520413 a 33.659823,33.659823 0 0 0 0.760598,1.388214 33.870691,33.870691 0 0 0 0.842286,1.377771 z m 3.934303,3.251947 c -0.543201,-0.586178 -1.084973,-1.234454 -1.614162,-1.93177 0.513634,0.0202 1.03736,0.03038 1.569639,0.03038 0.546879,0 1.087466,-0.01223 1.619504,-0.036 -0.522419,0.710016 -1.049949,1.359247 -1.574981,1.93735 z m 5.470224,-6.059132 c 0.358569,0.817352 0.66086,1.608105 0.900939,2.36004 -0.777937,0.177499 -1.617724,0.320454 -2.502636,0.4266 a 40.076459,40.076459 0 0 0 0.823644,-1.365182 36.407045,36.407045 0 0 0 0.778053,-1.421458 z m -1.770891,0.848934 a 37.576081,37.576081 0 0 1 -1.287053,2.076625 c -0.795979,0.05687 -1.618558,0.0862 -2.456803,0.0862 -0.834806,0 -1.646933,-0.02598 -2.429021,-0.0767 a 32.508598,32.508598 0 0 1 -1.311162,-2.079831 32.216042,32.216042 0 0 1 -1.144576,-2.161633 32.516434,32.516434 0 0 1 1.141134,-2.162824 v 2.36e-4 a 32.206305,32.206305 0 0 1 1.300829,-2.0709197 c 0.797878,-0.060322 1.615944,-0.0919 2.442911,-0.0919 0.830652,0 1.649783,0.031798 2.447426,0.092608 a 34.515881,34.515881 0 0 1 1.292637,2.0639197 37.568957,37.568957 0 0 1 1.156568,2.152612 34.527991,34.527991 0 0 1 -1.152769,2.171609 z M 21.91326,3.5297852 c 0.898326,0.5181462 1.247753,2.6074727 0.683305,5.3474519 A 15.141304,15.141304 0 0 1 22.475929,9.4105824 C 21.362939,9.1537627 20.154246,8.9626074 18.888797,8.8438725 18.151593,7.7941648 17.387788,6.839677 16.621018,6.0135393 a 16.850452,16.850452 0 0 1 0.616931,-0.5658759 c 1.980685,-1.7237518 3.83184,-2.404324 4.675311,-1.9178782 z"
     id="path1864"
     inkscape:connector-curvature="0"
     style="fill:#9fedd7;stroke-width:0.11873204;fill-opacity:1" />
  <path
     d="m 15.805092,11.749604 c 1.323148,0 2.395657,1.072624 2.395657,2.395657 0,1.323146 -1.072509,2.395771 -2.395657,2.395771 -1.323031,0 -2.395656,-1.072625 -2.395656,-2.395771 0,-1.323033 1.072625,-2.395657 2.395656,-2.395657"
     id="path1866"
     inkscape:connector-curvature="0"
     style="fill:#026670;fill-opacity:1;stroke-width:0.11873204" />
</svg>
