<?xml version="1.0" encoding="UTF-8" standalone="no"?>
<!-- Created with Inkscape (http://www.inkscape.org/) -->

<svg
   xmlns:dc="http://purl.org/dc/elements/1.1/"
   xmlns:cc="http://creativecommons.org/ns#"
   xmlns:rdf="http://www.w3.org/1999/02/22-rdf-syntax-ns#"
   xmlns:svg="http://www.w3.org/2000/svg"
   xmlns="http://www.w3.org/2000/svg"
   xmlns:sodipodi="http://sodipodi.sourceforge.net/DTD/sodipodi-0.dtd"
   xmlns:inkscape="http://www.inkscape.org/namespaces/inkscape"
   version="1.1"
   id="svg2"
   xml:space="preserve"
   width="172.6261"
   height="219.56343"
   viewBox="0 0 172.6261 219.56343"
   sodipodi:docname="ruby-on-rails.svg"
   inkscape:version="0.92.3 (2405546, 2018-03-11)"><metadata
     id="metadata8"><rdf:RDF><cc:Work
         rdf:about=""><dc:format>image/svg+xml</dc:format><dc:type
           rdf:resource="http://purl.org/dc/dcmitype/StillImage" /><dc:title /></cc:Work></rdf:RDF></metadata><defs
     id="defs6"><clipPath
       clipPathUnits="userSpaceOnUse"
       id="clipPath22"><path
         d="m 3280.21,527.84 c 0,-256.481 -192.54,-449.1212 -449.2,-449.1212 H 77.3945 V 3742.63 c 0,256.57 192.5075,449.12 449.2075,449.12 H 3280.21 Z"
         id="path20"
         inkscape:connector-curvature="0" /></clipPath><linearGradient
       x1="0"
       y1="0"
       x2="1"
       y2="0"
       gradientUnits="userSpaceOnUse"
       gradientTransform="matrix(3202.82,0,0,-3202.82,77.3926,2135.24)"
       spreadMethod="pad"
       id="linearGradient32"><stop
         style="stop-opacity:1;stop-color:#a61d3c"
         offset="0"
         id="stop24" /><stop
         style="stop-opacity:1;stop-color:#a61d3c"
         offset="0.0797546"
         id="stop26" /><stop
         style="stop-opacity:1;stop-color:#b22841"
         offset="0.981595"
         id="stop28" /><stop
         style="stop-opacity:1;stop-color:#b22841"
         offset="1"
         id="stop30" /></linearGradient><clipPath
       clipPathUnits="userSpaceOnUse"
       id="clipPath44"><path
         d="m 778.77,4188.02 10.335,-933.46 915.475,381.62 z"
         id="path42"
         inkscape:connector-curvature="0" /></clipPath><linearGradient
       x1="0"
       y1="0"
       x2="1"
       y2="0"
       gradientUnits="userSpaceOnUse"
       gradientTransform="matrix(925.815,0,0,-925.815,778.77,3721.29)"
       spreadMethod="pad"
       id="linearGradient54"><stop
         style="stop-opacity:1;stop-color:#b63044"
         offset="0"
         id="stop46" /><stop
         style="stop-opacity:1;stop-color:#b63044"
         offset="0.0368098"
         id="stop48" /><stop
         style="stop-opacity:1;stop-color:#bc3b50"
         offset="0.895705"
         id="stop50" /><stop
         style="stop-opacity:1;stop-color:#bc3b50"
         offset="1"
         id="stop52" /></linearGradient><clipPath
       clipPathUnits="userSpaceOnUse"
       id="clipPath66"><path
         d="M 399.727,2333.81 783.953,1397.7 87.7227,1622.05 Z"
         id="path64"
         inkscape:connector-curvature="0" /></clipPath><linearGradient
       x1="0"
       y1="0"
       x2="1"
       y2="0"
       gradientUnits="userSpaceOnUse"
       gradientTransform="matrix(-4.09e-5,936.108,936.108,4.09e-5,435.84,1397.7)"
       spreadMethod="pad"
       id="linearGradient76"><stop
         style="stop-opacity:1;stop-color:#a51d3c"
         offset="0"
         id="stop68" /><stop
         style="stop-opacity:1;stop-color:#a51d3c"
         offset="0.0368098"
         id="stop70" /><stop
         style="stop-opacity:1;stop-color:#901b38"
         offset="0.93865"
         id="stop72" /><stop
         style="stop-opacity:1;stop-color:#901b38"
         offset="1"
         id="stop74" /></linearGradient><clipPath
       clipPathUnits="userSpaceOnUse"
       id="clipPath90"><path
         d="M 780.059,85.1094 783.953,1397.7 1702.92,1019.56 Z"
         id="path88"
         inkscape:connector-curvature="0" /></clipPath><linearGradient
       x1="0"
       y1="0"
       x2="1"
       y2="0"
       gradientUnits="userSpaceOnUse"
       gradientTransform="matrix(-5.74e-5,1312.59,1312.59,5.74e-5,1241.49,85.1097)"
       spreadMethod="pad"
       id="linearGradient100"><stop
         style="stop-opacity:1;stop-color:#ba3647"
         offset="0"
         id="stop92" /><stop
         style="stop-opacity:1;stop-color:#ba3647"
         offset="0.0368098"
         id="stop94" /><stop
         style="stop-opacity:1;stop-color:#9f1c3b"
         offset="0.93865"
         id="stop96" /><stop
         style="stop-opacity:1;stop-color:#9f1c3b"
         offset="1"
         id="stop98" /></linearGradient><clipPath
       clipPathUnits="userSpaceOnUse"
       id="clipPath110"><path
         d="m 2622.59,4182.87 10.3,-933.54 -928.31,386.85 z"
         id="path108"
         inkscape:connector-curvature="0" /></clipPath><linearGradient
       x1="0"
       y1="0"
       x2="1"
       y2="0"
       gradientUnits="userSpaceOnUse"
       gradientTransform="matrix(-4.08e-5,933.54,933.54,4.08e-5,2168.74,3249.33)"
       spreadMethod="pad"
       id="linearGradient120"><stop
         style="stop-opacity:1;stop-color:#cb4057"
         offset="0"
         id="stop112" /><stop
         style="stop-opacity:1;stop-color:#cb4057"
         offset="0.0368098"
         id="stop114" /><stop
         style="stop-opacity:1;stop-color:#b42e43"
         offset="0.895705"
         id="stop116" /><stop
         style="stop-opacity:1;stop-color:#b42e43"
         offset="1"
         id="stop118" /></linearGradient><clipPath
       clipPathUnits="userSpaceOnUse"
       id="clipPath130"><path
         d="m 2622.59,4182.87 10.3,-933.54 644.84,-229.59 z"
         id="path128"
         inkscape:connector-curvature="0" /></clipPath><linearGradient
       x1="0"
       y1="0"
       x2="1"
       y2="0"
       gradientUnits="userSpaceOnUse"
       gradientTransform="matrix(396.517,228.929,228.929,-396.517,2559.79,3375.94)"
       spreadMethod="pad"
       id="linearGradient140"><stop
         style="stop-opacity:1;stop-color:#d4445e"
         offset="0"
         id="stop132" /><stop
         style="stop-opacity:1;stop-color:#d4445e"
         offset="0.0797546"
         id="stop134" /><stop
         style="stop-opacity:1;stop-color:#b32b43"
         offset="0.944785"
         id="stop136" /><stop
         style="stop-opacity:1;stop-color:#b32b43"
         offset="1"
         id="stop138" /></linearGradient><clipPath
       clipPathUnits="userSpaceOnUse"
       id="clipPath150"><path
         d="m 3011.36,2322.93 -378.47,926.4 644.84,-229.59 z"
         id="path148"
         inkscape:connector-curvature="0" /></clipPath><linearGradient
       x1="0"
       y1="0"
       x2="1"
       y2="0"
       gradientUnits="userSpaceOnUse"
       gradientTransform="matrix(644.844,0,0,-644.844,2632.89,2786.13)"
       spreadMethod="pad"
       id="linearGradient156"><stop
         style="stop-opacity:1;stop-color:#bd3c51"
         offset="0"
         id="stop152" /><stop
         style="stop-opacity:1;stop-color:#b63044"
         offset="1"
         id="stop154" /></linearGradient><clipPath
       clipPathUnits="userSpaceOnUse"
       id="clipPath166"><path
         d="m 3011.36,2322.93 -380.95,-921.25 645.99,230.67 z"
         id="path164"
         inkscape:connector-curvature="0" /></clipPath><linearGradient
       x1="0"
       y1="0"
       x2="1"
       y2="0"
       gradientUnits="userSpaceOnUse"
       gradientTransform="matrix(645.996,0,0,-645.996,2630.41,1862.31)"
       spreadMethod="pad"
       id="linearGradient172"><stop
         style="stop-opacity:1;stop-color:#b83446"
         offset="0"
         id="stop168" /><stop
         style="stop-opacity:1;stop-color:#b22740"
         offset="1"
         id="stop170" /></linearGradient><clipPath
       clipPathUnits="userSpaceOnUse"
       id="clipPath182"><path
         d="m 2638.04,87.6016 -7.63,1314.0784 645.99,230.67 z"
         id="path180"
         inkscape:connector-curvature="0" /></clipPath><linearGradient
       x1="0"
       y1="0"
       x2="1"
       y2="0"
       gradientUnits="userSpaceOnUse"
       gradientTransform="matrix(496.303,-180.639,-180.639,-496.303,2494.53,1028.37)"
       spreadMethod="pad"
       id="linearGradient188"><stop
         style="stop-opacity:1;stop-color:#911a39"
         offset="0"
         id="stop184" /><stop
         style="stop-opacity:1;stop-color:#9a1b3a"
         offset="1"
         id="stop186" /></linearGradient><clipPath
       clipPathUnits="userSpaceOnUse"
       id="clipPath198"><path
         d="M 2638.04,87.6016 2630.41,1401.68 1703.55,1019.9 Z"
         id="path196"
         inkscape:connector-curvature="0" /></clipPath><linearGradient
       x1="0"
       y1="0"
       x2="1"
       y2="0"
       gradientUnits="userSpaceOnUse"
       gradientTransform="matrix(845.178,-1007.24,-1007.24,-845.178,2069.5,1326.96)"
       spreadMethod="pad"
       id="linearGradient208"><stop
         style="stop-opacity:1;stop-color:#b0253f"
         offset="0"
         id="stop200" /><stop
         style="stop-opacity:1;stop-color:#b0253f"
         offset="0.0368098"
         id="stop202" /><stop
         style="stop-opacity:1;stop-color:#bd3e53"
         offset="0.93865"
         id="stop204" /><stop
         style="stop-opacity:1;stop-color:#bd3e53"
         offset="1"
         id="stop206" /></linearGradient><clipPath
       clipPathUnits="userSpaceOnUse"
       id="clipPath218"><path
         d="M 2638.04,87.6016 780.348,84.9414 1703.55,1019.9 Z"
         id="path216"
         inkscape:connector-curvature="0" /></clipPath><linearGradient
       x1="0"
       y1="0"
       x2="1"
       y2="0"
       gradientUnits="userSpaceOnUse"
       gradientTransform="matrix(-4.09e-5,934.951,934.951,4.09e-5,1709.19,84.9398)"
       spreadMethod="pad"
       id="linearGradient228"><stop
         style="stop-opacity:1;stop-color:#b0253f"
         offset="0"
         id="stop220" /><stop
         style="stop-opacity:1;stop-color:#b0253f"
         offset="0.0368098"
         id="stop222" /><stop
         style="stop-opacity:1;stop-color:#951a39"
         offset="0.93865"
         id="stop224" /><stop
         style="stop-opacity:1;stop-color:#951a39"
         offset="1"
         id="stop226" /></linearGradient><clipPath
       clipPathUnits="userSpaceOnUse"
       id="clipPath254"><path
         d="m 2794.8,3322.73 118.91,-5.81 0.99,55.21 -123.81,25.16 z m 172.79,247.61 c -105.52,74.64 -215.13,128.03 -339.94,162.99 l 2.76,-254.58 c 153.1,-0.17 310.95,-49.41 465.23,-135.76 z m -117.48,208.66 -43.69,31.22 v -75.4 l 105.14,-65.01 z"
         id="path252"
         inkscape:connector-curvature="0" /></clipPath><linearGradient
       x1="0"
       y1="0"
       x2="1"
       y2="0"
       gradientUnits="userSpaceOnUse"
       gradientTransform="matrix(467.988,0,0,-467.988,2627.65,3563.57)"
       spreadMethod="pad"
       id="linearGradient264"><stop
         style="stop-opacity:1;stop-color:#ffffff"
         offset="0"
         id="stop256" /><stop
         style="stop-opacity:1;stop-color:#ffffff"
         offset="0.0368098"
         id="stop258" /><stop
         style="stop-opacity:1;stop-color:#f1dfcd"
         offset="0.742331"
         id="stop260" /><stop
         style="stop-opacity:1;stop-color:#f1dfcd"
         offset="1"
         id="stop262" /></linearGradient><clipPath
       clipPathUnits="userSpaceOnUse"
       id="clipPath274"><path
         d="m 2391.34,3350.05 82.13,-34.3 -18.1,58.3 z m -76.31,496.95 -36.7,121.72 -13.28,1.17 -139.23,-82.87 15.19,-36.2 z m 312.62,-113.67 c -97.89,27.56 -205.08,43.92 -327.38,49.74 -168.07,8.13 -375.31,-32.97 -587.76,-150.21 l 582.45,-242.79 c 106.93,60.86 219.86,88.84 335.45,88.68 z"
         id="path272"
         inkscape:connector-curvature="0" /></clipPath><linearGradient
       x1="0"
       y1="0"
       x2="1"
       y2="0"
       gradientUnits="userSpaceOnUse"
       gradientTransform="matrix(755.15,-435.986,-435.986,-755.15,1855.96,3881.31)"
       spreadMethod="pad"
       id="linearGradient284"><stop
         style="stop-opacity:1;stop-color:#ffffff"
         offset="0"
         id="stop276" /><stop
         style="stop-opacity:1;stop-color:#ffffff"
         offset="0.0368098"
         id="stop278" /><stop
         style="stop-opacity:1;stop-color:#f1dfcd"
         offset="0.895705"
         id="stop280" /><stop
         style="stop-opacity:1;stop-color:#f1dfcd"
         offset="1"
         id="stop282" /></linearGradient></defs><sodipodi:namedview
     pagecolor="#ffffff"
     bordercolor="#666666"
     borderopacity="1"
     objecttolerance="10"
     gridtolerance="10"
     guidetolerance="10"
     inkscape:pageopacity="0"
     inkscape:pageshadow="2"
     inkscape:window-width="1394"
     inkscape:window-height="835"
     id="namedview4"
     showgrid="false"
     inkscape:zoom="1.6578855"
     inkscape:cx="0.10768697"
     inkscape:cy="108.33413"
     inkscape:window-x="46"
     inkscape:window-y="40"
     inkscape:window-maximized="1"
     inkscape:current-layer="g10" /><g
     id="g10"
     inkscape:groupmode="layer"
     inkscape:label="ink_ext_XXXXXX"
     transform="matrix(1.3333333,0,0,-1.3333333,-7.2381358,559.75581)"><path
       inkscape:connector-curvature="0"
       id="path14"
       style="fill:#012f34;fill-opacity:1;fill-rule:nonzero;stroke:none;stroke-width:0.03856004"
       d="m 134.89818,273.74997 c 0,-10.27791 -8.3309,-18.60568 -18.60214,-18.60568 H 5.428602 v 146.06736 c 0,10.27432 8.329586,18.60522 18.60387,18.60522 H 134.89818 v -146.0669" /><g
       id="g16"
       transform="matrix(0.03856004,0,0,0.03856004,5.428602,255.14429)"
       style="fill:#026670;fill-opacity:1"><g
         clip-path="url(#clipPath22)"
         id="g18"
         style="fill:#026670;fill-opacity:1"><path
           inkscape:connector-curvature="0"
           id="path34"
           style="fill:#026670;fill-opacity:1;fill-rule:nonzero;stroke:none"
           d="m 3280.21,527.84 c 0,-256.481 -192.54,-449.1212 -449.2,-449.1212 H 77.3945 V 3742.63 c 0,256.57 192.5075,449.12 449.2075,449.12 H 3280.21 V 527.84" /></g></g><g
       id="g38"
       transform="matrix(0.03856004,0,0,0.03856004,5.428602,255.14429)"><g
         clip-path="url(#clipPath44)"
         id="g40" /></g><g
       id="g60"
       transform="matrix(0.03856004,0,0,0.03856004,5.428602,255.14429)"><g
         clip-path="url(#clipPath66)"
         id="g62" /></g><g
       id="g84"
       transform="matrix(0.03856004,0,0,0.03856004,5.428602,255.14429)"><g
         clip-path="url(#clipPath90)"
         id="g86" /></g><g
       id="g104"
       transform="matrix(0.03856004,0,0,0.03856004,5.428602,255.14429)"><g
         clip-path="url(#clipPath110)"
         id="g106" /></g><g
       id="g124"
       transform="matrix(0.03856004,0,0,0.03856004,5.428602,255.14429)"><g
         clip-path="url(#clipPath130)"
         id="g126" /></g><g
       id="g144"
       transform="matrix(0.03856004,0,0,0.03856004,5.428602,255.14429)"><g
         clip-path="url(#clipPath150)"
         id="g146" /></g><g
       id="g160"
       transform="matrix(0.03856004,0,0,0.03856004,5.428602,255.14429)"><g
         clip-path="url(#clipPath166)"
         id="g162" /></g><g
       id="g176"
       transform="matrix(0.03856004,0,0,0.03856004,5.428602,255.14429)"><g
         clip-path="url(#clipPath182)"
         id="g178" /></g><g
       id="g192"
       transform="matrix(0.03856004,0,0,0.03856004,5.428602,255.14429)"><g
         clip-path="url(#clipPath198)"
         id="g194" /></g><g
       id="g212"
       transform="matrix(0.03856004,0,0,0.03856004,5.428602,255.14429)"><g
         clip-path="url(#clipPath218)"
         id="g214" /></g><path
       inkscape:connector-curvature="0"
       id="path232"
       style="fill:#f6d1d9;fill-opacity:1;fill-rule:nonzero;stroke:none;stroke-width:0.03856004"
       d="m 89.778689,307.12477 -2.536093,6.15379 -9.361221,1.7514 2.465143,-7.08194 z m -6.26562,65.55939 4.101631,-5.63555 2.535708,3.69212 -3.579528,5.55805 z m 12.233943,10.92406 2.010907,-4.80882 3.729531,2.01052 -1.37968,4.43787 z m -1.619907,17.4114 C 72.066521,402.09198 32.576374,381.18434 26.906082,297.30854 H 80.99934 c -12.129447,31.4218 -10.722391,55.13083 -2.38224,71.19725 12.12829,23.36623 30.18017,24.91288 47.03438,15.06426 0.59575,1.41515 1.41515,3.20781 1.41515,3.20781 -9.61841,9.24669 -18.6218,13.54691 -32.939525,14.24176 z m 19.069095,-17.75073 4.58518,-0.22403 0.0382,2.1289 -4.77412,0.97017 z m -35.238091,-23.52317 -1.530448,-5.26074 5.51987,-5.0745 1.379678,4.88902 z m -42.69865,-3.84559 -8.575676,3.7303 -2.909047,-8.50056 8.801638,-3.28185 z m 84.647731,41.68996 -6.26292,4.47644 v -2.90743 l 6.0385,-3.733 z m -25.210939,5.89467 -1.415153,4.69353 -7.456355,0.59884 2.16129,-5.14507 z m -22.669833,-4.02798 -4.398929,5.74082 -6.188886,-3.65318 5.145066,-5.5966 z m -21.03026,-17.08132 -6.859831,5.07527 -4.773849,-6.49043 7.532049,-4.70008 z m -37.313278,-67.51825 10.490567,-1.19459 2.28769,9.74952 -10.043965,1.7834 z m 61.102509,19.22951 8.055193,-3.69136 -0.819401,5.74044 -7.348002,3.95086 0.11221,-5.99994" /><g
       id="g248"
       transform="matrix(0.03856004,0,0,0.03856004,5.428602,255.14429)"><g
         clip-path="url(#clipPath254)"
         id="g250" /></g><g
       id="g268"
       transform="matrix(0.03856004,0,0,0.03856004,5.428602,255.14429)"><g
         clip-path="url(#clipPath274)"
         id="g270" /></g><path
       inkscape:connector-curvature="0"
       id="path288"
       style="fill:#ffffff;fill-opacity:1;fill-rule:nonzero;stroke:none;stroke-width:0.03856004"
       d="m 68.448818,264.46768 h 6.413306 v 23.93962 h -6.413306 z m 19.760863,23.93962 h -6.409835 v -23.93962 h 15.996247 v 6.41678 h -9.586412 z m 26.068899,-8.57722 c -2.83647,0 -6.22783,0 -6.22783,0 v 2.60928 h 10.92483 v 5.92938 c 0,0 -7.12358,0 -10.963,0 -3.84174,0 -6.48966,-3.05423 -6.48966,-6.11524 v -2.53563 c 0,-3.69135 3.32041,-6.2657 6.41639,-6.2657 3.09252,0 5.77861,0 5.77861,0 v -2.90735 h -11.78164 v -6.03858 c 0,0 8.16394,0 11.63125,0 3.46809,0 6.60264,2.60944 6.60264,5.77587 v 3.17006 c 0,3.84533 -3.05781,6.37791 -5.89159,6.37791 z m -59.18079,-4.20123 h -5.71884 v 6.41334 h 5.71884 z m -0.197042,12.82981 H 49.03191 c -2.932877,0 -6.014634,-2.68956 -6.014634,-6.21781 0,-3.5287 0,-17.69605 0,-17.69605 h 6.361674 v 4.66847 h 5.71884 v -4.66847 h 6.465747 c 0,0 0,14.26691 0,17.74425 0,3.48005 -3.133003,6.16961 -6.662789,6.16961 z M 29.792686,277.22038 h -5.868954 v 4.82524 h 5.868954 z m 6.361481,1.19096 v 3.98992 c 0,2.12894 -2.122614,5.95167 -6.002988,5.95167 -3.877559,0 -12.640637,0 -12.640637,0 v -23.9137 h 6.464398 v 6.96355 l 5.220335,-6.96355 h 7.75616 l -6.067191,8.05858 c 0,0 5.269923,1.04039 5.269923,5.91353" /><path
       d="m 89.778689,307.12477 -2.536093,6.15379 -9.361221,1.7514 2.465143,-7.08194 z m -6.26562,65.55939 4.101631,-5.63555 2.535708,3.69212 -3.579528,5.55805 z m 12.233943,10.92406 2.010907,-4.80882 3.729531,2.01052 -1.37968,4.43787 z m -1.619907,17.4114 C 72.066521,402.09198 32.576374,381.18434 26.906082,297.30854 H 80.99934 c -12.129447,31.4218 -10.722391,55.13083 -2.38224,71.19725 12.12829,23.36623 30.18017,24.91288 47.03438,15.06426 0.59575,1.41515 1.41515,3.20781 1.41515,3.20781 -9.61841,9.24669 -18.6218,13.54691 -32.939525,14.24176 z m 19.069095,-17.75073 4.58518,-0.22403 0.0382,2.1289 -4.77412,0.97017 z m -35.238091,-23.52317 -1.530448,-5.26074 5.51987,-5.0745 1.379678,4.88902 z m -42.69865,-3.84559 -8.575676,3.7303 -2.909047,-8.50056 8.801638,-3.28185 z m 84.647731,41.68996 -6.26292,4.47644 v -2.90743 l 6.0385,-3.733 z m -25.210939,5.89467 -1.415153,4.69353 -7.456355,0.59884 2.16129,-5.14507 z m -22.669833,-4.02798 -4.398929,5.74082 -6.188886,-3.65318 5.145066,-5.5966 z m -21.03026,-17.08132 -6.859831,5.07527 -4.773849,-6.49043 7.532049,-4.70008 z m -37.313278,-67.51825 10.490567,-1.19459 2.28769,9.74952 -10.043965,1.7834 z m 61.102509,19.22951 8.055193,-3.69136 -0.819401,5.74044 -7.348002,3.95086 0.11221,-5.99994"
       style="fill:#9fedd7;fill-opacity:1;fill-rule:nonzero;stroke:none;stroke-width:0.03856004"
       id="path951"
       inkscape:connector-curvature="0" /><path
       d="m 68.448818,264.46768 h 6.413306 v 23.93962 h -6.413306 z m 19.760863,23.93962 h -6.409835 v -23.93962 h 15.996247 v 6.41678 h -9.586412 z m 26.068899,-8.57722 c -2.83647,0 -6.22783,0 -6.22783,0 v 2.60928 h 10.92483 v 5.92938 c 0,0 -7.12358,0 -10.963,0 -3.84174,0 -6.48966,-3.05423 -6.48966,-6.11524 v -2.53563 c 0,-3.69135 3.32041,-6.2657 6.41639,-6.2657 3.09252,0 5.77861,0 5.77861,0 v -2.90735 h -11.78164 v -6.03858 c 0,0 8.16394,0 11.63125,0 3.46809,0 6.60264,2.60944 6.60264,5.77587 v 3.17006 c 0,3.84533 -3.05781,6.37791 -5.89159,6.37791 z m -59.18079,-4.20123 h -5.71884 v 6.41334 h 5.71884 z m -0.197042,12.82981 H 49.03191 c -2.932877,0 -6.014634,-2.68956 -6.014634,-6.21781 0,-3.5287 0,-17.69605 0,-17.69605 h 6.361674 v 4.66847 h 5.71884 v -4.66847 h 6.465747 c 0,0 0,14.26691 0,17.74425 0,3.48005 -3.133003,6.16961 -6.662789,6.16961 z M 29.792686,277.22038 h -5.868954 v 4.82524 h 5.868954 z m 6.361481,1.19096 v 3.98992 c 0,2.12894 -2.122614,5.95167 -6.002988,5.95167 -3.877559,0 -12.640637,0 -12.640637,0 v -23.9137 h 6.464398 v 6.96355 l 5.220335,-6.96355 h 7.75616 l -6.067191,8.05858 c 0,0 5.269923,1.04039 5.269923,5.91353"
       style="fill:#9fedd7;fill-opacity:1;fill-rule:nonzero;stroke:none;stroke-width:0.03856004"
       id="path953"
       inkscape:connector-curvature="0" /></g></svg>