<?xml version="1.0" encoding="UTF-8" standalone="no"?>
<svg
   xmlns:dc="http://purl.org/dc/elements/1.1/"
   xmlns:cc="http://creativecommons.org/ns#"
   xmlns:rdf="http://www.w3.org/1999/02/22-rdf-syntax-ns#"
   xmlns:svg="http://www.w3.org/2000/svg"
   xmlns="http://www.w3.org/2000/svg"
   xmlns:sodipodi="http://sodipodi.sourceforge.net/DTD/sodipodi-0.dtd"
   xmlns:inkscape="http://www.inkscape.org/namespaces/inkscape"
   id="a5f41e37-d8d4-4d60-9e97-29ee7ebe1bc1"
   data-name="Layer 1"
   width="845.7243"
   height="704.03133"
   viewBox="0 0 845.7243 704.03133"
   version="1.1"
   sodipodi:docname="skill-thumbnail-1.svg"
   inkscape:version="0.92.3 (2405546, 2018-03-11)">
  <metadata
     id="metadata38">
    <rdf:RDF>
      <cc:Work
         rdf:about="">
        <dc:format>image/svg+xml</dc:format>
        <dc:type
           rdf:resource="http://purl.org/dc/dcmitype/StillImage" />
        <dc:title></dc:title>
      </cc:Work>
    </rdf:RDF>
  </metadata>
  <defs
     id="defs36" />
  <sodipodi:namedview
     pagecolor="#ffffff"
     bordercolor="#666666"
     borderopacity="1"
     objecttolerance="10"
     gridtolerance="10"
     guidetolerance="10"
     inkscape:pageopacity="0"
     inkscape:pageshadow="2"
     inkscape:window-width="1394"
     inkscape:window-height="835"
     id="namedview34"
     showgrid="false"
     inkscape:zoom="0.67042473"
     inkscape:cx="250.25932"
     inkscape:cy="349.57535"
     inkscape:window-x="46"
     inkscape:window-y="40"
     inkscape:window-maximized="1"
     inkscape:current-layer="a5f41e37-d8d4-4d60-9e97-29ee7ebe1bc1" />
  <path
     style="fill:#feb8b8"
     inkscape:connector-curvature="0"
     d="m 703.58598,664.77 -1.464,19.525 -29.773,-9.762 12.2,-14.643 z"
     data-name="Path 4"
     id="a9e5a31c-10e6-4175-9779-4994367672f7" />
  <path
     style="fill:#feb8b8"
     inkscape:connector-curvature="0"
     d="m 811.94501,658.425 -1.467,19.035 -16.595,2.441 -9.762,-9.274 11.226,-18.06 z"
     data-name="Path 5"
     id="f499a4aa-6a35-40fc-8432-e4c7ab26d048" />
  <path
     style="fill:#026670;fill-opacity:1"
     inkscape:connector-curvature="0"
     d="m 824.14705,415.35199 c 0,0 13.179,15.619 -3.41703,39.536 -16.596,23.917 -36.607,47.346 -36.607,47.346 l -37.1,70.286 c 0,0 -19.036,68.822 -23.429,70.774 -4.393,1.952 -6.833,-5.857 -4.393,2.44 2.44,8.297 0.976,7.81 -0.976,8.3 -1.952,0.49 -7.321,-0.488 -5.369,2.929 1.952,3.417 3.417,3.417 -0.488,3.417 -3.905,0 -5.369,-2.44 -5.369,0.976 0,3.416 -3.417,11.226 -3.417,11.226 0,0 -23.917,-6.833 -24.893,-9.762 -0.976,-2.929 6.345,-4.393 4.881,-7.321 -1.464,-2.928 -1.952,-2.929 -1.952,-7.321 0,-4.392 2.929,-5.369 2.929,-5.369 0,0 2.44,-0.976 1.464,-2.929 -0.976,-1.953 -4.881,-0.976 0,-3.417 4.881,-2.441 24.895,-77.121 24.895,-77.121 0,0 0,-37.1 6.345,-49.3 6.345,-12.2 1.464,-99.084 16.6,-100.06 15.136,-0.976 90.29603,5.37 90.29603,5.37 z"
     data-name="Path 6"
     id="fb70bf31-eafd-4d8a-8310-5130d8d104e1" />
  <path
     style="fill:#026670;fill-opacity:1"
     inkscape:connector-curvature="0"
     d="m 819.26597,443.17299 -2.929,75.655 c 0,0 14.64298,73.215 9.76198,95.667 -4.88098,22.452 -1.464,19.524 -4.39298,23.429 -2.929,3.905 -5.369,1.952 -2.929,5.369 2.44,3.417 3.9,4.393 0,8.3 -3.9,3.907 -5.857,13.179 -5.857,13.179 l -24.893,-2.44 c 0,0 6.345,-11.226 3.9,-13.667 -2.445,-2.441 -8.786,1.464 -3.9,-3.9 4.886,-5.364 7.81,-2.929 4.881,-5.369 -2.929,-2.44 -7.321,-1.464 -3.417,-5.369 3.904,-3.905 8.3,-3.9 4.393,-5.369 -3.907,-1.469 -8.3,0 -6.345,-2.929 1.955,-2.929 4.393,-6.345 4.393,-6.345 l -5.857,-44.417 c 0,0 -6.833,-14.643 -4.881,-20.988 1.952,-6.345 -8.3,-58.572 -8.3,-58.572 z"
     data-name="Path 7"
     id="a89455c2-275d-4b70-b13c-192fbe474176" />
  <path
     style="fill:#026670;fill-opacity:1"
     inkscape:connector-curvature="0"
     d="m 808.53001,668.186 c 0,0 4.881,-4.881 6.345,-1.952 1.464,2.929 12.20004,29.286 5.857,31.238 -6.343,1.952 -15.619,3.9 -20.5,2.44 -4.881,-1.46 -15.131,-8.3 -27.333,-8.3 -12.202,0 -22.452,-5.369 -22.452,-7.321 0,-1.952 -1.952,-13.667 7.321,-13.667 9.273,0 26.357,-10.738 26.357,-10.738 0,0 3.9,-7.81 5.857,-7.321 1.957,0.489 0.488,16.107 0.488,16.107 0,0 11.224,10.74001 18.06,-0.486 z"
     data-name="Path 8"
     id="a3024be5-ad86-493a-9bfb-258ab58160a1" />
  <path
     style="fill:#026670;fill-opacity:1"
     inkscape:connector-curvature="0"
     d="m 700.17,674.53101 c 0,0 4.393,-10.738 8.786,-8.3 4.393,2.438 1.464,32.7 1.464,32.7 0,0 -3.9,6.345 -15.131,4.881 -11.231,-1.464 -41,-4.881 -47.834,-3.417 -6.834,1.464 -25.381,-6.833 -20.5,-18.06 0,0 2.44,-6.345 14.155,-5.857 11.715,0.488 33.191,-13.667 33.191,-13.667 0,0 3.417,-9.762 4.393,-8.786 0.976,0.976 1.952,18.06 1.952,18.06 0,0 12.69099,8.303 19.524,2.446 z"
     data-name="Path 9"
     id="a57c92ce-496a-44de-934b-3ddd78679762" />
  <circle
     style="fill:#feb8b8"
     r="28.309999"
     cy="196.19598"
     cx="764.11102"
     data-name="Ellipse 2"
     id="fa315d33-3eeb-4d45-ab88-aeb0e9694c5a" />
  <path
     style="fill:#feb8b8"
     inkscape:connector-curvature="0"
     d="m 786.07503,198.14799 c 0,0 15.131,30.262 20.5,33.191 5.369,2.929 -36.607,20.989 -36.607,20.989 0,0 -6.833,-29.774 -15.131,-36.119 -8.298,-6.345 31.238,-18.061 31.238,-18.061 z"
     data-name="Path 10"
     id="fbae87ba-2986-46ef-9932-134b7e0cae24" />
  <path
     style="fill:#feb8b8"
     inkscape:connector-curvature="0"
     d="m 742.63498,445.61299 -1.952,18.548 c 0,0 -20.988,-7.321 -14.155,-20.988 z"
     data-name="Path 11"
     id="fc15680c-e415-4000-ac02-b1f296562473" />
  <path
     style="fill:#fef9c7;fill-opacity:1"
     inkscape:connector-curvature="0"
     d="m 734.33999,417.792 c 14.643,15.615 92.24696,2.436 92.24696,2.436 l -0.972,-11.225 9.762,-10.243 -2.927,-47.837 c 0,0 8.78,-22.45 10.243,-56.617 a 30.78024,30.78024 0 0 0 -0.378,-6.278 c -5.032,-30.607 -54.86996,-50.32 -56.23896,-49.857 -0.689,0.227 -8.025,4.05 -15.681,8.072 -8.789,4.617 -17.994,9.5 -17.994,9.5 -11.716,4.4 -9.762,74.687 -13.67,81.031 -3.908,6.344 0,28.3 0,28.3 l -4.39,20.987 c 0,0 -14.64797,16.11598 -0.001,31.731 z"
     data-name="Path 12"
     id="ae3770ab-4aa4-41b9-9f4d-4c69df699916" />
  <path
     inkscape:connector-curvature="0"
     style="opacity:0.1;isolation:isolate"
     d="m 781.64503,262.83999 c 0,0 13.667,41 10.738,68.822 -2.929,27.822 -34.655,107.382 -34.655,107.382 l -10.733,5.857 v 13.666 l -7.553,-20.458 20.77,-43.428 c 0,0 -25.91703,-149.89999 21.433,-131.841 z"
     data-name="Path 13"
     id="b41fb511-fd5e-48e5-b733-0d9230f6b6d5" />
  <path
     inkscape:connector-curvature="0"
     style="opacity:0.1;isolation:isolate"
     d="m 768.82702,250.53801 c 14.161,-7.808 35.639,12.7 58.09003,34.657 8.063,7.883 12.726,7.09 15.4,2.832 -5.032,-30.607 -54.87003,-50.32 -56.23903,-49.857 -0.689,0.227 -8.025,4.05 -15.681,8.072 z"
     data-name="Path 14"
     id="efbdbf49-3b58-4bc5-8391-5fbab31acdf7" />
  <path
     style="fill:#fef9c7;fill-opacity:1"
     inkscape:connector-curvature="0"
     d="m 768.83398,246.765 5.857,-16.107 c 0,0 40.024,-19.036 66.38097,0 l 4.393,27.333 c 0,0 3.9,45.393 -18.548,23.429 -22.44797,-21.964 -43.92995,-42.465 -58.08297,-34.655 z"
     data-name="Path 15"
     id="a2828270-d54b-4ede-bb2b-8639f55947f0" />
  <path
     style="fill:#fef9c7;fill-opacity:1"
     inkscape:connector-curvature="0"
     d="m 780.21902,256.23199 c 0,0 13.667,41 10.738,68.822 -2.929,27.822 -34.655,107.382 -34.655,107.382 l -10.738,5.861 v 13.667 l -22.452,-6.345 4.881,-16.107 c 0,0 -7.81,-9.762 -2.44,-12.691 5.37,-2.929 4.393,-19.036 4.393,-19.036 0,0 2.92699,-159.613 50.273,-141.553 z"
     data-name="Path 16"
     id="f68da632-d878-40c3-a103-67cfc5c970db" />
  <path
     style="fill:#2f2e41"
     inkscape:connector-curvature="0"
     d="m 789.34903,208.047 c -0.462,-2.188 -0.4,-4.542 -1.448,-6.517 -1.573,-2.961 -5.188,-4.2 -8.529,-4.492 -4.265,-0.371 -8.562,0.367 -12.833,0.075 -4.271,-0.292 -8.833,-1.92 -10.959,-5.635 -0.848,-1.482 -1.266,-3.227 -2.391,-4.512 -2.341,-2.674 -6.608,-2.26 -9.972,-1.114 -3.364,1.146 -6.873,2.82 -10.312,1.924 -2.892,-8.091 0.669,-17.424 6.828,-23.415 6.159,-5.991 14.465,-9.215 22.715,-11.618 10.881,-3.17 23.126,-5.043 33.13,0.282 14.507,7.721 19.626,28.158 18.288,43.39 -0.506,5.758 -1.333,12.278 -5.988,16.165 -6.82203,5.69799 -16.46901,5.20899 -18.529,-4.533 z"
     data-name="Path 17"
     id="f57115f6-7f5b-4177-880b-f5eff1305e5b" />
  <rect
     style="fill:#e6e6e6"
     height="391.60699"
     width="611.461"
     y="0.347"
     x="0.26201001"
     data-name="Rectangle 1"
     id="e1abf0e4-070b-4c82-8a12-ebedd4e3db02" />
  <rect
     style="fill:#ffffff"
     height="319.32199"
     width="576.492"
     y="49.464001"
     x="19.746"
     data-name="Rectangle 2"
     id="ace8bea0-82e8-49b8-a50c-1e1cb532084f" />
  <rect
     style="fill:#026670;fill-opacity:1"
     y="0"
     x="0"
     height="25.976999"
     width="611.461"
     data-name="Rectangle 3"
     id="b540f353-e277-4512-bc56-a133cea2858b" />
  <circle
     style="fill:#ffffff"
     r="4.8150001"
     cy="13.281"
     cx="19.30501"
     data-name="Ellipse 3"
     id="b2b285b5-c1c3-4b12-9710-2898c7239781" />
  <circle
     style="fill:#ffffff"
     r="4.8150001"
     cy="13.281"
     cx="37.580009"
     data-name="Ellipse 4"
     id="a5a428bb-42a2-4f57-9e6c-9979c01a2490" />
  <circle
     style="fill:#ffffff"
     r="4.8150001"
     cy="13.281"
     cx="55.855011"
     data-name="Ellipse 5"
     id="a9929a25-14ce-4464-bac9-4165f1e3fae6" />
  <path
     style="fill:#026670;fill-opacity:1"
     inkscape:connector-curvature="0"
     d="m 120.60502,94.22099 -38.133,37.657 38.133,37.656 8.58,-8.58 -28.835,-28.839 29.076,-29.076 z"
     data-name="Path 37"
     id="b4a2d72b-abc3-4d2f-a2b8-a2aff6897b26" />
  <path
     style="fill:#026670;fill-opacity:1"
     inkscape:connector-curvature="0"
     d="m 151.85002,94.22099 38.132,37.657 -38.132,37.656 -8.58,-8.58 28.837,-28.838 -29.078,-29.077 z"
     data-name="Path 38"
     id="b5120d89-6cbe-4bfa-9a1b-cf9b07deff91" />
  <path
     style="fill:#e6e6e6"
     inkscape:connector-curvature="0"
     d="m 275.194,103.67099 c -3.119,0 -5.647,1.794 -5.647,4.006 0,2.212 2.528,4.006 5.647,4.006 h 266.214 c 3.119,0 5.647,-1.794 5.647,-4.006 0,-2.212 -2.528,-4.006 -5.647,-4.006 z"
     data-name="Path 65"
     id="a31271bd-8e2f-469b-8cee-8b6db3f92f99" />
  <path
     style="fill:#e6e6e6"
     inkscape:connector-curvature="0"
     d="m 538.76103,323.14999 h -447.838 c -4.578,0 -8.288,-2.643 -8.293,-5.9 v -79.042 c 0.005,-3.257 3.715,-5.9 8.293,-5.9 h 447.838 c 4.578,0 8.288,2.643 8.293,5.9 v 79.041 c -0.004,3.25702 -3.715,5.89701 -8.293,5.901 z m -447.838,-88.484 c -2.747,0 -4.973,1.586 -4.976,3.54 v 79.041 c 0,1.954 2.229,3.538 4.976,3.54 h 447.838 c 2.747,0 4.973,-1.586 4.976,-3.54 v -79.039 c 0,-1.954 -2.229,-3.538 -4.976,-3.54 z"
     data-name="Path 78"
     id="bf577952-0fd5-43e0-be6b-ea1966b51a93" />
  <circle
     style="fill:#e6e6e6"
     r="20.035999"
     cy="277.69501"
     cx="137.04001"
     data-name="Ellipse 13"
     id="f7f4957b-eaa8-456b-bf02-bacf7de3ef80" />
  <path
     style="fill:#026670;fill-opacity:1"
     inkscape:connector-curvature="0"
     d="m 193.55003,261.67099 a 4.0060034,4.0060034 0 0 0 -0.0104,8.012 h 188.87133 a 4.006,4.006 0 0 0 0,-8.012 z"
     data-name="Path 79"
     id="fb0f055d-da6e-47f2-bb6d-7ff26d7b746a" />
  <path
     style="fill:#026670;fill-opacity:1"
     inkscape:connector-curvature="0"
     d="m 193.55003,285.70801 a 4.0060034,4.0060034 0 0 0 -0.0104,8.012 h 81.27636 a 4.0060034,4.0060034 0 0 0 0.0104,-8.012 z"
     data-name="Path 80"
     id="bfcde504-8c45-4d21-843b-87b1f7e22ce0" />
  <path
     style="fill:#e6e6e6"
     inkscape:connector-curvature="0"
     d="m 273.25003,127.67099 a 4.019,4.019 0 0 0 0,8.012 h 174.47 a 4.019,4.019 0 0 0 0,-8.012 z"
     data-name="Path 81"
     id="a66699ea-75f1-4575-b6d5-52b0b1f8e30c" />
  <path
     style="fill:#e6e6e6"
     inkscape:connector-curvature="0"
     d="m 274.39798,151.67099 c -2.679,0 -4.851,1.794 -4.851,4.006 0,2.212 2.172,4.006 4.851,4.006 h 228.7 c 2.679,0 4.851,-1.794 4.851,-4.006 0,-2.212 -2.172,-4.006 -4.851,-4.006 z"
     data-name="Path 82"
     id="bbc4ca7b-25d4-4c7e-b3d4-0411f69bd48f" />
</svg>
