<?xml version="1.0" encoding="UTF-8" standalone="no"?>
<svg
   xmlns:dc="http://purl.org/dc/elements/1.1/"
   xmlns:cc="http://creativecommons.org/ns#"
   xmlns:rdf="http://www.w3.org/1999/02/22-rdf-syntax-ns#"
   xmlns:svg="http://www.w3.org/2000/svg"
   xmlns="http://www.w3.org/2000/svg"
   xmlns:sodipodi="http://sodipodi.sourceforge.net/DTD/sodipodi-0.dtd"
   xmlns:inkscape="http://www.inkscape.org/namespaces/inkscape"
   width="256px"
   height="256px"
   viewBox="0 0 256 256"
   version="1.1"
   preserveAspectRatio="xMidYMid"
   id="svg10"
   sodipodi:docname="typescript.svg"
   inkscape:version="0.92.3 (2405546, 2018-03-11)">
  <metadata
     id="metadata16">
    <rdf:RDF>
      <cc:Work
         rdf:about="">
        <dc:format>image/svg+xml</dc:format>
        <dc:type
           rdf:resource="http://purl.org/dc/dcmitype/StillImage" />
        <dc:title />
      </cc:Work>
    </rdf:RDF>
  </metadata>
  <defs
     id="defs14" />
  <sodipodi:namedview
     pagecolor="#ffffff"
     bordercolor="#666666"
     borderopacity="1"
     objecttolerance="10"
     gridtolerance="10"
     guidetolerance="10"
     inkscape:pageopacity="0"
     inkscape:pageshadow="2"
     inkscape:window-width="1394"
     inkscape:window-height="835"
     id="namedview12"
     showgrid="false"
     inkscape:zoom="0.921875"
     inkscape:cx="-84.610168"
     inkscape:cy="83.525427"
     inkscape:window-x="46"
     inkscape:window-y="40"
     inkscape:window-maximized="1"
     inkscape:current-layer="svg10" />
  <polygon
     style="fill:#026670;fill-opacity:1"
     id="polygon2"
     points="128,0 256,0 256,128 256,256 128,256 0,256 0,128 0,0 "
     transform="matrix(1,0,0,-1,0,256)" />
  <path
     style="fill:#9fedd7;fill-opacity:1"
     inkscape:connector-curvature="0"
     id="path4"
     d="m 56.61115,128.84912 -0.0813,10.48381 H 73.1902 l 16.66031,0 0,47.33968 v 47.33968 h 11.78413 11.78413 v -47.33968 l 0,-47.33968 h 16.66032 16.66031 v -10.28064 c 0,-5.68889 -0.1219,-10.44317 -0.28444,-10.56508 -0.12191,-0.16254 -20.39873,-0.24381 -44.98286,-0.20317 l -44.73905,0.1219 z" />
  <path
     style="fill:#9fedd7;fill-opacity:1"
     inkscape:connector-curvature="0"
     id="path6"
     d="m 206.56663,118.10834 c 6.50159,1.62539 11.45905,4.51047 16.01016,9.22412 2.35683,2.51937 5.85143,7.11111 6.13587,8.20826 0.0813,0.32508 -11.0527,7.8019 -17.79809,11.9873 -0.24381,0.16254 -1.21905,-0.89397 -2.31619,-2.51937 -3.29143,-4.79492 -6.7454,-6.8673 -12.02794,-7.23301 -7.76127,-0.52826 -12.75936,3.53524 -12.71873,10.32127 0,1.99111 0.28444,3.16952 1.09714,4.79492 1.70667,3.53524 4.87619,5.64825 14.83175,9.95555 18.32635,7.88318 26.16889,13.08445 31.04508,20.48 5.44508,8.24889 6.66413,21.41461 2.96635,31.20762 -4.06349,10.64635 -14.14095,17.87937 -28.32254,20.27683 -4.38857,0.77206 -14.79111,0.65016 -19.50476,-0.20318 -10.28064,-1.82857 -20.03302,-6.90793 -26.04699,-13.57206 -2.35682,-2.60064 -6.94857,-9.38667 -6.66412,-9.87429 0.1219,-0.16254 1.17841,-0.81269 2.35682,-1.50349 1.13778,-0.65016 5.44508,-3.12889 9.50857,-5.48571 l 7.35492,-4.26667 1.54413,2.27556 c 2.15365,3.29143 6.8673,7.8019 9.71175,9.30539 8.16761,4.30731 19.38285,3.69778 24.9092,-1.25968 2.35683,-2.15365 3.33207,-4.38857 3.33207,-7.68 0,-2.96635 -0.36572,-4.26667 -1.90985,-6.50159 -1.99111,-2.84444 -6.0546,-5.2419 -17.59492,-10.24 -13.20635,-5.68889 -18.89523,-9.22412 -24.0965,-14.83174 -3.00699,-3.2508 -5.85143,-8.45207 -7.02985,-12.8 -0.97523,-3.61651 -1.21904,-12.6781 -0.44698,-16.33524 2.72254,-12.75937 12.35302,-21.65841 26.25016,-24.29968 4.51048,-0.85334 14.99428,-0.52826 19.42349,0.56889 z" />
</svg>
