<?xml version="1.0" encoding="UTF-8" standalone="no"?>
<svg
   xmlns:dc="http://purl.org/dc/elements/1.1/"
   xmlns:cc="http://creativecommons.org/ns#"
   xmlns:rdf="http://www.w3.org/1999/02/22-rdf-syntax-ns#"
   xmlns:svg="http://www.w3.org/2000/svg"
   xmlns="http://www.w3.org/2000/svg"
   xmlns:sodipodi="http://sodipodi.sourceforge.net/DTD/sodipodi-0.dtd"
   xmlns:inkscape="http://www.inkscape.org/namespaces/inkscape"
   height="169.64297"
   width="160.88597"
   version="1.1"
   id="Layer_1"
   viewBox="-94.79835 -166.597 110.15134 211.96508"
   sodipodi:docname="viber.svg"
   inkscape:version="0.92.3 (2405546, 2018-03-11)">
  <metadata
     id="metadata13">
    <rdf:RDF>
      <cc:Work
         rdf:about="">
        <dc:format>image/svg+xml</dc:format>
        <dc:type
           rdf:resource="http://purl.org/dc/dcmitype/StillImage" />
        <dc:title />
      </cc:Work>
    </rdf:RDF>
  </metadata>
  <sodipodi:namedview
     pagecolor="#ffffff"
     bordercolor="#666666"
     borderopacity="1"
     objecttolerance="10"
     gridtolerance="10"
     guidetolerance="10"
     inkscape:pageopacity="0"
     inkscape:pageshadow="2"
     inkscape:window-width="1394"
     inkscape:window-height="835"
     id="namedview11"
     showgrid="false"
     inkscape:zoom="1.18"
     inkscape:cx="29.720309"
     inkscape:cy="51.486404"
     inkscape:window-x="46"
     inkscape:window-y="40"
     inkscape:window-maximized="1"
     inkscape:current-layer="Layer_1" />
  <defs
     id="defs4">
    <style
       id="style2">.cls-2{fill:#7360f2}</style>
  </defs>
  <path
     id="path10"
     d="m 38.097838,-145.9223 c -5.26741,-4.86028 -26.55336,-20.31263 -73.96644,-20.52256 0,0 -55.91219,-3.37165 -83.168508,21.62948 -15.17244,15.17562 -20.50983,37.38082 -21.07283,64.910689 -0.56301,27.529873 -1.29141,79.12253527 48.440468,93.111714 h 0.0478 l -0.0318,21.346382 c 0,0 -0.31808,8.642249 5.37239,10.404412 6.88326,2.137506 10.92289,-4.430859 17.49443,-11.511331 3.60703,-3.886949 8.58817,-9.596493 12.34152,-13.960559 34.01235,2.862732 60.1712901,-3.680191 63.1421601,-4.647156 6.8673599,-2.226559 45.7272599,-7.2076969 52.0475099,-58.793999 6.52384,-53.173518 -3.15535,-86.807352 -20.6466,-101.967072 z m 5.76362,98.153286 C 38.527248,-4.6945455 7.0086481,-1.9876789 1.1973181,-0.12373212 -1.2741719,0.67146638 -24.249122,6.3873801 -53.140372,4.5011628 c 0,0 -21.52769,25.9712672 -28.25191,32.7241182 -1.04967,1.056027 -2.28382,1.482253 -3.10765,1.272325 -1.15781,-0.28309 -1.47589,-1.654019 -1.46317,-3.657931 0.0191,-2.862722 0.18448,-35.47233532 0.18448,-35.47233532 0,0 -0.0255,0 0,0 C -127.84795,-12.312578 -125.39554,-56.223596 -124.91842,-79.217636 c 0.47712,-22.994044 4.79665,-41.830774 17.62802,-54.499924 23.054478,-20.88198 70.547078,-17.76161 70.547078,-17.76161 40.1067701,0.17494 59.32519,12.25246 63.7815,16.29845 14.79711,12.66914 22.33562,42.9854 16.82328,87.398986 z"
     class="cls-2"
     style="fill:#026670;fill-opacity:1;stroke-width:0.31808051"
     inkscape:connector-curvature="0" />
  <path
     id="path12"
     d="m -16.351192,-78.425608 a 2.6782379,2.6782379 0 0 1 -2.67505,-2.544651 c -0.45486,-9.100285 -4.74258,-13.556594 -13.49297,-14.027351 a 2.6814187,2.6814187 0 0 1 0.28945,-5.35329 c 11.54632,0.636162 17.96519,7.229967 18.55682,19.113451 a 2.6814187,2.6814187 0 0 1 -2.54465,2.811841 z"
     class="cls-2"
     style="fill:#026670;fill-opacity:1;stroke-width:0.31808051"
     inkscape:connector-curvature="0" />
  <path
     id="path14"
     d="m -2.5910219,-73.813444 h -0.0636 a 2.6814187,2.6814187 0 0 1 -2.6178,-2.741857 c 0.20675,-9.163898 -2.41106,-16.584713 -8.0029101,-22.6855 -5.59186,-6.100799 -13.20989,-9.408829 -23.36619,-10.153139 a 2.6853725,2.6853725 0 1 1 0.39123,-5.35647 c 11.42864,0.83655 20.48757,4.83482 26.9287001,11.8803 6.44113,7.045491 9.64419994,15.958109 9.40881994,26.426142 a 2.6845995,2.6845995 0 0 1 -2.67823994,2.630524 z"
     class="cls-2"
     style="fill:#026670;fill-opacity:1;stroke-width:0.31808051"
     inkscape:connector-curvature="0" />
  <path
     id="path16"
     d="m 11.490408,-68.310657 a 2.6845995,2.6845995 0 0 1 -2.6814299,-2.662325 c -0.12404,-16.390695 -4.84436,-28.910342 -14.4313,-38.268278 -9.4724401,-9.22433 -21.4386301,-13.95737 -35.5709401,-14.05916 a 2.6814376,2.6814376 0 0 1 0.0191,-5.36284 h 0.0223 c 15.56049,0.11452 28.77357,5.35648 39.2734001,15.58595 10.49984,10.22946 15.9135699,24.409506 16.0535199,42.072517 a 2.6814187,2.6814187 0 0 1 -2.65915,2.700506 z"
     class="cls-2"
     style="fill:#026670;fill-opacity:1;stroke-width:0.31808051"
     inkscape:connector-curvature="0" />
  <path
     id="path18"
     d="m -31.844882,-45.192562 c 0,0 3.76925,0.318082 5.79861,-2.182028 l 3.95692,-4.977967 c 1.90848,-2.468299 6.51428,-4.042795 11.02466,-1.529965 a 116.63058,116.63058 0 0 1 9.8318701,6.278914 c 2.99314,2.201119 9.12255,7.315851 9.14164,7.315851 2.9199699,2.465118 3.5943099,6.084878 1.60631,9.901844 0,0.02227 -0.0159,0.06039 -0.0159,0.07955 a 41.290032,41.290032 0 0 1 -8.2351,10.140402 c -0.0381,0.01906 -0.0381,0.03822 -0.0731,0.05728 q -4.25592,3.556137 -8.36234,4.042795 a 5.5314202,5.5314202 0 0 1 -1.22143,0.07634 11.132818,11.132818 0 0 1 -3.5561401,-0.547099 l -0.0891,-0.130415 c -4.21775,-1.189622 -11.26006,-4.166849 -22.98767,-10.63661 a 136.89868,136.89868 0 0 1 -19.31385,-12.758205 101.2482,101.2482 0 0 1 -8.68678,-7.703915 l -0.29264,-0.292631 -0.29264,-0.29264 -0.29263,-0.29263 c -0.0986,-0.0954 -0.19402,-0.194027 -0.29264,-0.292631 a 101.2482,101.2482 0 0 1 -7.7039,-8.68678 137.03863,137.03863 0 0 1 -12.75822,-19.310669 c -6.46975,-11.730809 -9.44698,-18.76675 -10.63661,-22.990861 l -0.13041,-0.08908 a 11.132818,11.132818 0 0 1 -0.54391,-3.55614 5.3660183,5.3660183 0 0 1 0.0731,-1.22144 q 0.51211,-4.10005 4.04917,-8.3687 c 0.0191,-0.035 0.0382,-0.035 0.0573,-0.0731 a 41.200969,41.200969 0 0 1 10.14041,-8.23192 c 0.0191,0 0.0573,-0.0191 0.0795,-0.0191 3.81697,-1.988 7.43672,-1.31367 9.89867,1.5904 0.0191,0.0191 5.12427,6.1485 7.31585,9.14164 a 116.63058,116.63058 0 0 1 6.2789,9.84141 c 2.51284,4.507191 0.93834,9.122536 -1.52996,11.024654 l -4.97796,3.956921 c -2.51284,2.029352 -2.18203,5.798607 -2.18203,5.798607 0,0 7.3731,27.905206 34.92206,34.937967 z"
     class="cls-2"
     style="fill:#026670;fill-opacity:1;stroke-width:0.31808051"
     inkscape:connector-curvature="0" />
</svg>
