<?xml version="1.0" encoding="UTF-8" standalone="no"?>
<svg
   xmlns:dc="http://purl.org/dc/elements/1.1/"
   xmlns:cc="http://creativecommons.org/ns#"
   xmlns:rdf="http://www.w3.org/1999/02/22-rdf-syntax-ns#"
   xmlns:svg="http://www.w3.org/2000/svg"
   xmlns="http://www.w3.org/2000/svg"
   xmlns:sodipodi="http://sodipodi.sourceforge.net/DTD/sodipodi-0.dtd"
   xmlns:inkscape="http://www.inkscape.org/namespaces/inkscape"
   width="169.10976"
   height="191.34929"
   viewBox="0 0 169.10976 191.34929"
   version="1.1"
   preserveAspectRatio="xMidYMid"
   id="svg10"
   sodipodi:docname="webpack.svg"
   inkscape:version="0.92.3 (2405546, 2018-03-11)">
  <metadata
     id="metadata16">
    <rdf:RDF>
      <cc:Work
         rdf:about="">
        <dc:format>image/svg+xml</dc:format>
        <dc:type
           rdf:resource="http://purl.org/dc/dcmitype/StillImage" />
        <dc:title></dc:title>
      </cc:Work>
    </rdf:RDF>
  </metadata>
  <defs
     id="defs14" />
  <sodipodi:namedview
     pagecolor="#ffffff"
     bordercolor="#666666"
     borderopacity="1"
     objecttolerance="10"
     gridtolerance="10"
     guidetolerance="10"
     inkscape:pageopacity="0"
     inkscape:pageshadow="2"
     inkscape:window-width="1394"
     inkscape:window-height="835"
     id="namedview12"
     showgrid="false"
     inkscape:zoom="1.1508772"
     inkscape:cx="53.861405"
     inkscape:cy="65.442732"
     inkscape:window-x="46"
     inkscape:window-y="40"
     inkscape:window-maximized="1"
     inkscape:current-layer="svg10" />
  <g
     id="g8"
     transform="matrix(0.660585,0,0,0.660585,0,-0.0319075)">
    <polygon
       points="0,217.31019 0,72.45283 128,0.048301887 256,72.45283 256,217.31019 128,289.71472 "
       id="polygon2"
       style="fill:#edeae5;fill-opacity:1" />
    <path
       d="m 233.15321,212.28679 -100.90264,57.14114 v -44.43774 l 62.88905,-34.63245 z m 6.90717,-6.23094 V 86.653585 l -36.90264,21.301135 v 76.8 z M 22.460377,212.28679 123.36302,269.37962 V 224.94189 L 60.473962,190.35774 Z m -6.90717,-6.23094 V 86.653585 l 36.902642,21.301135 v 76.8 z M 19.852076,78.925283 123.36302,20.383396 V 63.372075 L 57.044528,99.84 l -0.531321,0.28981 z m 215.861134,0 -103.46264,-58.541887 v 42.988679 l 66.27018,36.516227 0.53132,0.289808 z"
       id="path4"
       style="fill:#9fedd7;fill-opacity:1"
       inkscape:connector-curvature="0" />
    <path
       d="M 123.36302,214.84679 61.343396,180.69736 v -67.57434 l 62.019624,35.7917 z m 8.88755,0 62.01962,-34.10113 v -67.62264 l -62.01962,35.7917 z M 65.497359,105.29811 127.80679,71.052075 l 62.26113,34.246035 -62.26113,35.93661 z"
       id="path6"
       style="fill:#026670;fill-opacity:1"
       inkscape:connector-curvature="0" />
  </g>
</svg>
