<?xml version="1.0" encoding="UTF-8" standalone="no"?>
<!-- Created with Inkscape (http://www.inkscape.org/) -->

<svg
   xmlns:dc="http://purl.org/dc/elements/1.1/"
   xmlns:cc="http://creativecommons.org/ns#"
   xmlns:rdf="http://www.w3.org/1999/02/22-rdf-syntax-ns#"
   xmlns:svg="http://www.w3.org/2000/svg"
   xmlns="http://www.w3.org/2000/svg"
   xmlns:sodipodi="http://sodipodi.sourceforge.net/DTD/sodipodi-0.dtd"
   xmlns:inkscape="http://www.inkscape.org/namespaces/inkscape"
   version="1.1"
   id="svg2"
   width="237.82231"
   height="239.65959"
   viewBox="0 0 237.82231 239.65959"
   sodipodi:docname="whatsapp.svg"
   inkscape:version="0.92.3 (2405546, 2018-03-11)">
  <metadata
     id="metadata8">
    <rdf:RDF>
      <cc:Work
         rdf:about="">
        <dc:format>image/svg+xml</dc:format>
        <dc:type
           rdf:resource="http://purl.org/dc/dcmitype/StillImage" />
        <dc:title></dc:title>
      </cc:Work>
    </rdf:RDF>
  </metadata>
  <defs
     id="defs6" />
  <sodipodi:namedview
     pagecolor="#ffffff"
     bordercolor="#666666"
     borderopacity="1"
     objecttolerance="10"
     gridtolerance="10"
     guidetolerance="10"
     inkscape:pageopacity="0"
     inkscape:pageshadow="2"
     inkscape:window-width="1394"
     inkscape:window-height="835"
     id="namedview4"
     showgrid="false"
     inkscape:zoom="0.98333333"
     inkscape:cx="-39.135598"
     inkscape:cy="115.78"
     inkscape:window-x="46"
     inkscape:window-y="40"
     inkscape:window-maximized="1"
     inkscape:current-layer="svg2" />
  <path
     style="fill:#026670;fill-opacity:1"
     d="m 0,238.88147 c 0,-0.62935 3.64935,-14.45567 8.10967,-30.72514 l 8.10968,-29.58086 -4.05039,-8.63185 C 3.17943,150.7859 0.55999,137.40698 1.27686,114.31178 1.88819,94.617083 4.51662,83.549513 12.45118,67.260013 33.68809,23.661005 77.44884,-2.3122351 125.5,0.1623429 c 31.84084,1.639766 57.39101,13.3093981 79.61434,36.3625731 10.30967,10.694648 15.59083,18.319228 22.03977,31.819497 7.4213,15.53582 9.96112,26.58512 10.56618,45.967367 0.74851,23.97767 -2.54224,39.46269 -12.52008,58.91461 -28.62358,55.80206 -95.46398,79.46279 -153.79629,54.44211 l -9.50746,-4.07807 -29.69823,7.76601 C 15.8642,235.62774 1.9375,239.32569 1.25,239.5741 0.5625,239.82251 0,239.5108 0,238.88147 Z m 139.74252,-23.49315 c 19.31425,-4.12255 34.62802,-12.65915 49.25747,-27.45839 12.31378,-12.45669 18.64365,-22.34862 23.58402,-36.85567 4.13132,-12.1313 5.39875,-19.87749 5.40843,-33.05464 0.0314,-42.794917 -28.17126,-80.548214 -69.96504,-93.658155 -40.93891,-12.841791 -86.36304,3.598726 -110.61058,40.03369 -6.25389,9.397258 -9.45369,16.276738 -13.15275,28.278058 -2.45294,7.958347 -2.66259,10.016547 -2.66259,26.138567 0,16.28145 0.19265,18.12668 2.7668,26.5 1.52175,4.95 5.24531,13.77079 8.27458,19.60175 l 5.50776,10.60175 -4.70657,17.18365 c -2.58862,9.45101 -4.46552,17.42472 -4.17089,17.71934 0.29462,0.29463 8.49937,-1.54768 18.23277,-4.09402 l 17.69708,-4.62972 7.7281,4.0206 c 9.38617,4.88322 23.2827,9.64626 32.06889,10.99162 8.43612,1.29176 25.55779,0.64201 34.74252,-1.31843 z M 135,172.97515 C 123.30511,169.0185 116.29602,165.74707 107.95962,160.35428 93.14125,150.76833 71.14307,126.27875 64.10615,111.5342 58.35632,99.486523 57.59073,88.046763 61.88464,78.339663 c 2.27261,-5.13762 7.16814,-11.30035 10.51946,-13.242443 2.76108,-1.600038 12.77364,-1.623949 14.83836,-0.03544 0.8936,0.6875 4.18957,7.486528 7.32438,15.108948 5.63409,13.69948 5.68131,13.89747 4.10359,17.20598 -0.87785,1.84086 -3.18781,5.108862 -5.13326,7.262232 C 91.59172,106.79232 90,109.39978 90,110.43331 c 0,1.03352 2.92117,5.77138 6.4915,10.52857 6.0488,8.05955 11.46101,13.32874 19.19478,18.68754 4.32282,2.99531 16.91518,9.16235 18.70845,9.16235 0.7976,0 4.07258,-3.34585 7.27773,-7.43522 3.20515,-4.08937 6.67295,-7.73808 7.70625,-8.10824 1.26956,-0.4548 6.53845,1.62141 16.25,6.40333 14.22735,7.00548 14.37128,7.10991 14.37128,10.42674 0,6.17999 -2.73756,13.05469 -6.71968,16.87481 -6.26694,6.01199 -11.59456,8.14933 -21.28032,8.53726 -7.28394,0.29173 -9.71604,-0.071 -16.99999,-2.53531 z"
     id="path817"
     inkscape:connector-curvature="0" />
</svg>
